SourceSansPro_1.ufo
<glyph name="A.sc" format="1">
  <advance width="516"/>
  <outline>
    <contour>
      <point x="-10" y="0" type="line"/>
      <point x="164" y="0" type="line"/>
      <point x="219" y="244" type="line" smooth="yes"/>
      <point x="230" y="292"/>
      <point x="241" y="358"/>
      <point x="252" y="409" type="curve"/>
      <point x="256" y="409" type="line"/>
      <point x="269" y="359"/>
      <point x="280" y="292"/>
      <point x="291" y="244" type="curve" smooth="yes"/>
      <point x="346" y="0" type="line"/>
      <point x="526" y="0" type="line"/>
      <point x="361" y="532" type="line"/>
      <point x="155" y="532" type="line"/>
    </contour>
    <contour>
      <point x="118" y="94" type="line"/>
      <point x="397" y="94" type="line"/>
      <point x="397" y="216" type="line"/>
      <point x="118" y="216" type="line"/>
    </contour>
    <contour>
      <point x="254" y="564" type="move" name="aboveUC"/>
    </contour>
    <contour>
      <point x="254" y="-22" type="move" name="belowLC"/>
    </contour>
    <contour>
      <point x="414" y="0" type="move" name="ogonekUC"/>
    </contour>
  </outline>
</glyph>
<glyph name="B" format="1">
	<advance width="612"/>
	<outline>
		<contour>
			<point x="72" y="0" type="line"/>
			<point x="326" y="0" type="line" smooth="yes"/>
			<point x="466" y="0"/>
			<point x="582" y="58"/>
			<point x="582" y="192" type="curve" smooth="yes"/>
			<point x="582" y="278"/>
			<point x="532" y="326"/>
			<point x="470" y="344" type="curve"/>
			<point x="470" y="348" type="line"/>
			<point x="520" y="368"/>
			<point x="552" y="432"/>
			<point x="552" y="488" type="curve" smooth="yes"/>
			<point x="552" y="616"/>
			<point x="442" y="650"/>
			<point x="306" y="650" type="curve" smooth="yes"/>
			<point x="72" y="650" type="line"/>
		</contour>
		<contour>
			<point x="244" y="396" type="line"/>
			<point x="244" y="518" type="line"/>
			<point x="302" y="518" type="line" smooth="yes"/>
			<point x="358" y="518"/>
			<point x="384" y="502"/>
			<point x="384" y="462" type="curve" smooth="yes"/>
			<point x="384" y="422"/>
			<point x="358" y="396"/>
			<point x="302" y="396" type="curve" smooth="yes"/>
		</contour>
		<contour>
			<point x="244" y="132" type="line"/>
			<point x="244" y="270" type="line"/>
			<point x="314" y="270" type="line" smooth="yes"/>
			<point x="382" y="270"/>
			<point x="414" y="252"/>
			<point x="414" y="204" type="curve" smooth="yes"/>
			<point x="414" y="156"/>
			<point x="382" y="132"/>
			<point x="314" y="132" type="curve" smooth="yes"/>
		</contour>
		<contour>
			<point name="aboveUC" x="305" y="672" type="move"/>
		</contour>
		<contour>
			<point name="belowLC" x="320" y="-22" type="move"/>
		</contour>
	</outline>
</glyph>
<glyph name="Chedescender" format="1">
  <advance width="660"/>
  <outline>
    <contour>
      <point x="488" y="-188" type="line"/>
      <point x="638" y="-188" type="line"/>
      <point x="652" y="36" type="line"/>
      <point x="652" y="144" type="line"/>
      <point x="460" y="144" type="line"/>
      <point x="460" y="0" type="line"/>
      <point x="488" y="0" type="line"/>
    </contour>
    <component base="Che"/>
  </outline>
</glyph>
<glyph name="De" format="1">
	<advance width="682"/>
	<outline>
		<contour>
			<point x="176" y="0" type="line"/>
			<point x="506" y="0" type="line"/>
			<point x="506" y="-188" type="line"/>
			<point x="660" y="-188" type="line"/>
			<point x="674" y="36" type="line"/>
			<point x="674" y="144" type="line"/>
			<point x="8" y="144" type="line"/>
			<point x="8" y="36" type="line"/>
			<point x="22" y="-188" type="line"/>
			<point x="176" y="-188" type="line"/>
		</contour>
		<contour>
			<point x="420" y="50" type="line"/>
			<point x="592" y="50" type="line"/>
			<point x="592" y="650" type="line"/>
			<point x="184" y="650" type="line"/>
			<point x="163" y="532"/>
			<point x="153" y="474"/>
			<point x="132" y="366" type="curve" smooth="yes"/>
			<point x="102" y="214"/>
			<point x="68" y="154"/>
			<point x="38" y="144" type="curve"/>
			<point x="60" y="36" type="line"/>
			<point x="182" y="36"/>
			<point x="250" y="158"/>
			<point x="286" y="344" type="curve" smooth="yes"/>
			<point x="299" y="412"/>
			<point x="304" y="440"/>
			<point x="316" y="506" type="curve"/>
			<point x="420" y="506" type="line"/>
		</contour>
	</outline>
</glyph>
<glyph name="De.sc" format="1">
	<advance width="620"/>
	<outline>
		<contour>
			<point x="172" y="-172" type="line"/>
			<point x="172" y="0" type="line"/>
			<point x="448" y="0" type="line"/>
			<point x="448" y="-172" type="line"/>
			<point x="596" y="-172" type="line"/>
			<point x="612" y="24" type="line"/>
			<point x="612" y="142" type="line"/>
			<point x="8" y="142" type="line"/>
			<point x="8" y="24" type="line"/>
			<point x="24" y="-172" type="line"/>
		</contour>
		<contour>
			<point x="358" y="50" type="line"/>
			<point x="530" y="50" type="line"/>
			<point x="530" y="532" type="line"/>
			<point x="158" y="532" type="line"/>
			<point x="141" y="442"/>
			<point x="133" y="400"/>
			<point x="115" y="319" type="curve" smooth="yes"/>
			<point x="90" y="201"/>
			<point x="60" y="149"/>
			<point x="34" y="141" type="curve"/>
			<point x="52" y="34" type="line"/>
			<point x="171" y="31"/>
			<point x="236" y="147"/>
			<point x="267" y="298" type="curve" smooth="yes"/>
			<point x="276" y="340"/>
			<point x="279" y="352"/>
			<point x="288" y="392" type="curve"/>
			<point x="358" y="392" type="line"/>
		</contour>
	</outline>
</glyph>
<glyph name="Dzhe" format="1">
  <advance width="670"/>
  <outline>
    <contour>
      <point x="72" y="0" type="line"/>
      <point x="598" y="0" type="line"/>
      <point x="598" y="650" type="line"/>
      <point x="426" y="650" type="line"/>
      <point x="426" y="144" type="line"/>
      <point x="244" y="144" type="line"/>
      <point x="244" y="650" type="line"/>
      <point x="72" y="650" type="line"/>
    </contour>
    <contour>
      <point x="260" y="-188" type="line"/>
      <point x="414" y="-188" type="line"/>
      <point x="428" y="24" type="line"/>
      <point x="260" y="0" type="line"/>
    </contour>
  </outline>
</glyph>
<glyph name="Delta.sc" format="1">
  <advance width="592"/>
  <outline>
    <contour>
      <point x="36" y="0" type="line"/>
      <point x="556" y="0" type="line"/>
      <point x="556" y="102" type="line"/>
      <point x="399" y="532" type="line"/>
      <point x="193" y="532" type="line"/>
      <point x="36" y="102" type="line"/>
    </contour>
    <contour>
      <point x="217" y="141" type="line"/>
      <point x="252" y="262" type="line"/>
      <point x="290" y="412" type="line"/>
      <point x="294" y="412" type="line"/>
      <point x="334" y="262" type="line"/>
      <point x="371" y="141" type="line"/>
    </contour>
  </outline>
</glyph>
<glyph name="E" format="1">
  <advance width="556"/>
  <outline>
    <contour>
      <point x="72" y="0" type="line"/>
      <point x="502" y="0" type="line"/>
      <point x="502" y="144" type="line"/>
      <point x="244" y="144" type="line"/>
      <point x="244" y="260" type="line"/>
      <point x="456" y="260" type="line"/>
      <point x="456" y="404" type="line"/>
      <point x="244" y="404" type="line"/>
      <point x="244" y="506" type="line"/>
      <point x="492" y="506" type="line"/>
      <point x="492" y="650" type="line"/>
      <point x="72" y="650" type="line"/>
    </contour>
    <contour>
      <point x="290" y="672" type="move" name="aboveUC"/>
    </contour>
    <contour>
      <point x="294" y="-22" type="move" name="belowLC"/>
    </contour>
    <contour>
      <point x="396" y="0" type="move" name="ogonekUC"/>
    </contour>
  </outline>
</glyph>
<glyph name="E.sc" format="1">
  <advance width="508"/>
  <outline>
    <contour>
      <point x="72" y="0" type="line"/>
      <point x="454" y="0" type="line"/>
      <point x="454" y="132" type="line"/>
      <point x="244" y="132" type="line"/>
      <point x="244" y="206" type="line"/>
      <point x="416" y="206" type="line"/>
      <point x="416" y="330" type="line"/>
      <point x="244" y="330" type="line"/>
      <point x="244" y="400" type="line"/>
      <point x="444" y="400" type="line"/>
      <point x="444" y="532" type="line"/>
      <point x="72" y="532" type="line"/>
    </contour>
    <contour>
      <point x="271" y="564" type="move" name="aboveUC"/>
    </contour>
    <contour>
      <point x="272" y="-22" type="move" name="belowLC"/>
    </contour>
    <contour>
      <point x="336" y="0" type="move" name="ogonekUC"/>
    </contour>
  </outline>
</glyph>
<glyph name="E.sups" format="1">
  <advance width="376"/>
  <outline>
    <contour>
      <point x="47" y="368" type="line"/>
      <point x="339" y="368" type="line"/>
      <point x="339" y="467" type="line"/>
      <point x="167" y="467" type="line"/>
      <point x="167" y="539" type="line"/>
      <point x="309" y="539" type="line"/>
      <point x="309" y="638" type="line"/>
      <point x="167" y="638" type="line"/>
      <point x="167" y="701" type="line"/>
      <point x="333" y="701" type="line"/>
      <point x="333" y="800" type="line"/>
      <point x="47" y="800" type="line"/>
    </contour>
  </outline>
</glyph>
<glyph name="Esdescender.sc" format="1">
  <advance width="526"/>
  <outline>
    <contour>
      <point x="224" y="-172" type="line"/>
      <point x="372" y="-172" type="line"/>
      <point x="392" y="10" type="line"/>
      <point x="218" y="10" type="line"/>
    </contour>
    <component base="Es.sc"/>
  </outline>
</glyph>
<glyph name="Euro" format="1">
	<advance width="540"/>
	<outline>
		<contour>
			<point x="344" y="-12" type="curve" smooth="yes"/>
			<point x="416" y="-12"/>
			<point x="480" y="20"/>
			<point x="530" y="80" type="curve"/>
			<point x="436" y="168" type="line"/>
			<point x="414" y="138"/>
			<point x="388" y="120"/>
			<point x="354" y="120" type="curve" smooth="yes"/>
			<point x="284" y="120"/>
			<point x="244" y="190"/>
			<point x="244" y="318" type="curve" smooth="yes"/>
			<point x="244" y="442"/>
			<point x="280" y="514"/>
			<point x="348" y="514" type="curve" smooth="yes"/>
			<point x="380" y="514"/>
			<point x="404" y="498"/>
			<point x="428" y="476" type="curve"/>
			<point x="522" y="568" type="line"/>
			<point x="476" y="620"/>
			<point x="414" y="646"/>
			<point x="354" y="646" type="curve" smooth="yes"/>
			<point x="190" y="646"/>
			<point x="72" y="524"/>
			<point x="72" y="312" type="curve" smooth="yes"/>
			<point x="72" y="97"/>
			<point x="190" y="-12"/>
		</contour>
		<contour>
			<point x="20" y="208" type="line"/>
			<point x="412" y="208" type="line"/>
			<point x="412" y="292" type="line"/>
			<point x="96" y="292" type="line"/>
			<point x="20" y="286" type="line"/>
		</contour>
		<contour>
			<point x="20" y="336" type="line"/>
			<point x="452" y="336" type="line"/>
			<point x="452" y="420" type="line"/>
			<point x="96" y="420" type="line"/>
			<point x="20" y="414" type="line"/>
		</contour>
	</outline>
</glyph>
<glyph name="F" format="1">
  <advance width="536"/>
  <outline>
    <contour>
      <point x="72" y="0" type="line"/>
      <point x="244" y="0" type="line"/>
      <point x="244" y="238" type="line"/>
      <point x="460" y="238" type="line"/>
      <point x="460" y="382" type="line"/>
      <point x="244" y="382" type="line"/>
      <point x="244" y="506" type="line"/>
      <point x="496" y="506" type="line"/>
      <point x="496" y="650" type="line"/>
      <point x="72" y="650" type="line"/>
    </contour>
    <contour>
      <point x="290" y="672" type="move" name="aboveUC"/>
    </contour>
    <contour>
      <point x="168" y="-22" type="move" name="belowLC"/>
    </contour>
  </outline>
</glyph>
<glyph name="F.sc" format="1">
  <advance width="488"/>
  <outline>
    <contour>
      <point x="72" y="0" type="line"/>
      <point x="244" y="0" type="line"/>
      <point x="244" y="180" type="line"/>
      <point x="420" y="180" type="line"/>
      <point x="420" y="308" type="line"/>
      <point x="244" y="308" type="line"/>
      <point x="244" y="392" type="line"/>
      <point x="448" y="392" type="line"/>
      <point x="448" y="532" type="line"/>
      <point x="72" y="532" type="line"/>
    </contour>
    <contour>
      <point x="271" y="564" type="move" name="aboveUC"/>
    </contour>
    <contour>
      <point x="168" y="-22" type="move" name="belowLC"/>
    </contour>
  </outline>
</glyph>
<glyph name="Ghook" format="1">
	<advance width="646"/>
	<outline>
		<contour>
			<point x="372" y="-12" type="curve" smooth="yes"/>
			<point x="464" y="-12"/>
			<point x="546" y="24"/>
			<point x="592" y="68" type="curve"/>
			<point x="592" y="378" type="line"/>
			<point x="344" y="378" type="line"/>
			<point x="344" y="238" type="line"/>
			<point x="440" y="238" type="line"/>
			<point x="440" y="148" type="line"/>
			<point x="428" y="140"/>
			<point x="408" y="136"/>
			<point x="390" y="136" type="curve" smooth="yes"/>
			<point x="274" y="136"/>
			<point x="220" y="204"/>
			<point x="220" y="326" type="curve" smooth="yes"/>
			<point x="220" y="444"/>
			<point x="286" y="514"/>
			<point x="374" y="514" type="curve" smooth="yes"/>
			<point x="426" y="514"/>
			<point x="458" y="498"/>
			<point x="490" y="476" type="curve"/>
			<point x="580" y="586" type="line"/>
			<point x="534" y="627"/>
			<point x="464" y="662"/>
			<point x="368" y="662" type="curve" smooth="yes"/>
			<point x="194" y="662"/>
			<point x="44" y="538"/>
			<point x="44" y="320" type="curve" smooth="yes"/>
			<point x="44" y="98"/>
			<point x="190" y="-12"/>
		</contour>
		<contour>
			<point x="432" y="580" type="curve"/>
			<point x="580" y="586" type="line"/>
			<point x="566" y="602"/>
			<point x="550" y="620"/>
			<point x="550" y="644" type="curve" smooth="yes"/>
			<point x="550" y="676"/>
			<point x="572" y="690"/>
			<point x="600" y="690" type="curve" smooth="yes"/>
			<point x="610" y="690"/>
			<point x="616" y="688"/>
			<point x="626" y="684" type="curve"/>
			<point x="656" y="810" type="line"/>
			<point x="634" y="817"/>
			<point x="608" y="824"/>
			<point x="562" y="824" type="curve" smooth="yes"/>
			<point x="462" y="824"/>
			<point x="406" y="752"/>
			<point x="406" y="670" type="curve" smooth="yes"/>
			<point x="406" y="642"/>
			<point x="421" y="609"/>
		</contour>
	</outline>
</glyph>
<glyph name="Gheup" format="1">
  <advance width="530"/>
  <outline>
    <contour>
      <point x="72" y="0" type="line"/>
      <point x="244" y="0" type="line"/>
      <point x="244" y="506" type="line"/>
      <point x="496" y="506" type="line"/>
      <point x="486" y="650" type="line"/>
      <point x="72" y="650" type="line"/>
    </contour>
    <contour>
      <point x="302" y="506" type="line"/>
      <point x="496" y="506" type="line"/>
      <point x="506" y="822" type="line"/>
      <point x="359" y="822" type="line"/>
      <point x="337" y="650" type="line"/>
      <point x="302" y="650" type="line"/>
    </contour>
  </outline>
</glyph>
<glyph name="H.sc" format="1">
	<advance width="632"/>
	<outline>
		<contour>
			<point x="72" y="0" type="line"/>
			<point x="244" y="0" type="line"/>
			<point x="244" y="196" type="line"/>
			<point x="388" y="196" type="line"/>
			<point x="388" y="0" type="line"/>
			<point x="560" y="0" type="line"/>
			<point x="560" y="532" type="line"/>
			<point x="388" y="532" type="line"/>
			<point x="388" y="344" type="line"/>
			<point x="244" y="344" type="line"/>
			<point x="244" y="532" type="line"/>
			<point x="72" y="532" type="line"/>
		</contour>
		<contour>
			<point name="aboveUC" x="316" y="564" type="move"/>
		</contour>
		<contour>
			<point name="belowLC" x="316" y="-22" type="move"/>
		</contour>
	</outline>
</glyph>
<glyph name="H.sc" format="1">
  <advance width="632"/>
  <outline>
    <contour>
      <point x="72" y="0" type="line"/>
      <point x="244" y="0" type="line"/>
      <point x="244" y="196" type="line"/>
      <point x="388" y="196" type="line"/>
      <point x="388" y="0" type="line"/>
      <point x="560" y="0" type="line"/>
      <point x="560" y="532" type="line"/>
      <point x="388" y="532" type="line"/>
      <point x="388" y="344" type="line"/>
      <point x="244" y="344" type="line"/>
      <point x="244" y="532" type="line"/>
      <point x="72" y="532" type="line"/>
    </contour>
    <contour>
      <point x="316" y="564" type="move" name="aboveUC"/>
    </contour>
    <contour>
      <point x="316" y="-22" type="move" name="belowLC"/>
    </contour>
  </outline>
</glyph>
<glyph name="Hadescender.sc" format="1">
  <advance width="568"/>
  <outline>
    <contour>
      <point x="396" y="-172" type="line"/>
      <point x="544" y="-172" type="line"/>
      <point x="560" y="24" type="line"/>
      <point x="560" y="142" type="line"/>
      <point x="368" y="142" type="line"/>
      <point x="368" y="0" type="line"/>
      <point x="396" y="0" type="line"/>
    </contour>
    <component base="Ha.sc"/>
  </outline>
</glyph>
<glyph name="I" format="1">
	<advance width="316"/>
	<outline>
		<contour>
			<point x="72" y="0" type="line"/>
			<point x="244" y="0" type="line"/>
			<point x="244" y="650" type="line"/>
			<point x="72" y="650" type="line"/>
		</contour>
		<contour>
			<point name="aboveUC" x="158" y="672" type="move"/>
		</contour>
		<contour>
			<point name="belowLC" x="158" y="-22" type="move"/>
		</contour>
		<contour>
			<point name="ogonekUC" x="140" y="0" type="move"/>
		</contour>
	</outline>
</glyph>
<glyph name="I.sc" format="1">
  <advance width="316"/>
  <outline>
    <contour>
      <point x="72" y="0" type="line"/>
      <point x="244" y="0" type="line"/>
      <point x="244" y="532" type="line"/>
      <point x="72" y="532" type="line"/>
    </contour>
    <contour>
      <point x="158" y="564" type="move" name="aboveUC"/>
    </contour>
    <contour>
      <point x="158" y="-22" type="move" name="belowLC"/>
    </contour>
    <contour>
      <point x="140" y="0" type="move" name="ogonekUC"/>
    </contour>
  </outline>
</glyph>
<glyph name="I.alt" format="1">
  <advance width="416"/>
  <outline>
    <contour>
      <point x="54" y="0" type="line"/>
      <point x="362" y="0" type="line"/>
      <point x="362" y="144" type="line"/>
      <point x="294" y="144" type="line"/>
      <point x="294" y="506" type="line"/>
      <point x="362" y="506" type="line"/>
      <point x="362" y="650" type="line"/>
      <point x="54" y="650" type="line"/>
      <point x="54" y="506" type="line"/>
      <point x="122" y="506" type="line"/>
      <point x="122" y="144" type="line"/>
      <point x="54" y="144" type="line"/>
    </contour>
    <contour>
      <point x="208" y="672" type="move" name="aboveUC"/>
    </contour>
    <contour>
      <point x="208" y="-22" type="move" name="belowLC"/>
    </contour>
    <contour>
      <point x="190" y="0" type="move" name="ogonekUC"/>
    </contour>
  </outline>
</glyph>
<glyph name="Icyr.sc" format="1">
	<advance width="614"/>
	<outline>
		<contour>
			<point x="542" y="0" type="line"/>
			<point x="384" y="0" type="line"/>
			<point x="384" y="107" type="line" smooth="yes"/>
			<point x="384" y="176"/>
			<point x="398" y="269"/>
			<point x="406" y="332" type="curve"/>
			<point x="402" y="332" type="line"/>
			<point x="345" y="202" type="line"/>
			<point x="240" y="0" type="line"/>
			<point x="72" y="0" type="line"/>
			<point x="72" y="532" type="line"/>
			<point x="230" y="532" type="line"/>
			<point x="230" y="424" type="line" smooth="yes"/>
			<point x="230" y="355"/>
			<point x="216" y="258"/>
			<point x="208" y="200" type="curve"/>
			<point x="212" y="200" type="line"/>
			<point x="269" y="331" type="line"/>
			<point x="370" y="532" type="line"/>
			<point x="542" y="532" type="line"/>
		</contour>
		<contour>
			<point name="aboveUC" x="316" y="554" type="move"/>
		</contour>
	</outline>
</glyph>
<glyph name="Iota.sc" format="1">
	<advance width="316"/>
	<outline>
		<component base="I.sc"/>
		<contour>
			<point name="aboveLC" x="158" y="564" type="move"/>
		</contour>
		<contour>
			<point name="belowLC" x="158" y="-22" type="move"/>
		</contour>
	</outline>
</glyph>
<glyph name="K" format="1">
  <advance width="628"/>
  <outline>
    <contour>
      <point x="72" y="0" type="line"/>
      <point x="244" y="0" type="line"/>
      <point x="244" y="162" type="line"/>
      <point x="306" y="250" type="line"/>
      <point x="450" y="0" type="line"/>
      <point x="638" y="0" type="line"/>
      <point x="406" y="386" type="line"/>
      <point x="600" y="650" type="line"/>
      <point x="412" y="650" type="line"/>
      <point x="248" y="408" type="line"/>
      <point x="244" y="408" type="line"/>
      <point x="244" y="650" type="line"/>
      <point x="72" y="650" type="line"/>
    </contour>
    <contour>
      <point x="322" y="672" type="move" name="aboveUC"/>
    </contour>
    <contour>
      <point x="334" y="-22" type="move" name="belowLC"/>
    </contour>
  </outline>
</glyph>
<glyph name="K.sups" format="1">
  <advance width="425"/>
  <outline>
    <contour>
      <point x="47" y="368" type="line"/>
      <point x="167" y="368" type="line"/>
      <point x="167" y="478" type="line"/>
      <point x="208" y="534" type="line"/>
      <point x="302" y="368" type="line"/>
      <point x="433" y="368" type="line"/>
      <point x="277" y="626" type="line"/>
      <point x="407" y="800" type="line"/>
      <point x="276" y="800" type="line"/>
      <point x="170" y="644" type="line"/>
      <point x="167" y="644" type="line"/>
      <point x="167" y="800" type="line"/>
      <point x="47" y="800" type="line"/>
    </contour>
  </outline>
</glyph>
<glyph name="Ka.b" format="1">
	<advance width="630"/>
	<outline>
		<contour>
			<point x="72" y="0" type="line"/>
			<point x="244" y="0" type="line"/>
			<point x="244" y="260" type="line"/>
			<point x="300" y="260" type="line"/>
			<point x="446" y="0" type="line"/>
			<point x="634" y="0" type="line"/>
			<point x="418" y="358" type="line"/>
			<point x="624" y="650" type="line"/>
			<point x="432" y="650" type="line"/>
			<point x="284" y="406" type="line"/>
			<point x="244" y="406" type="line"/>
			<point x="244" y="650" type="line"/>
			<point x="72" y="650" type="line"/>
		</contour>
	</outline>
</glyph>
<glyph name="Ka.b" format="1">
  <advance width="630"/>
  <outline>
    <contour>
      <point x="72" y="0" type="line"/>
      <point x="244" y="0" type="line"/>
      <point x="244" y="260" type="line"/>
      <point x="300" y="260" type="line"/>
      <point x="446" y="0" type="line"/>
      <point x="634" y="0" type="line"/>
      <point x="418" y="358" type="line"/>
      <point x="624" y="650" type="line"/>
      <point x="432" y="650" type="line"/>
      <point x="284" y="406" type="line"/>
      <point x="244" y="406" type="line"/>
      <point x="244" y="650" type="line"/>
      <point x="72" y="650" type="line"/>
    </contour>
  </outline>
</glyph>
<glyph name="Kabashkir" format="1">
	<advance width="762"/>
	<outline>
		<contour>
			<point x="556" y="340" type="line"/>
			<point x="622" y="452" type="line" smooth="yes"/>
			<point x="643" y="488"/>
			<point x="660" y="502"/>
			<point x="690" y="502" type="curve" smooth="yes"/>
			<point x="696" y="502"/>
			<point x="708" y="502"/>
			<point x="720" y="498" type="curve"/>
			<point x="748" y="652" type="line"/>
			<point x="732" y="660"/>
			<point x="708" y="662"/>
			<point x="688" y="662" type="curve" smooth="yes"/>
			<point x="608" y="662"/>
			<point x="554" y="630"/>
			<point x="506" y="546" type="curve" smooth="yes"/>
			<point x="408" y="374" type="line"/>
		</contour>
		<contour>
			<point x="196" y="0" type="line"/>
			<point x="368" y="0" type="line"/>
			<point x="368" y="264" type="line"/>
			<point x="424" y="264" type="line"/>
			<point x="586" y="0" type="line"/>
			<point x="766" y="0" type="line"/>
			<point x="524" y="402" type="line"/>
			<point x="368" y="402" type="line"/>
			<point x="368" y="650" type="line"/>
			<point x="24" y="650" type="line"/>
			<point x="24" y="506" type="line"/>
			<point x="196" y="506" type="line"/>
		</contour>
	</outline>
</glyph>
<glyph name="Kadescender.sc" format="1">
  <advance width="630"/>
  <outline>
    <contour>
      <point x="458" y="-172" type="line"/>
      <point x="606" y="-172" type="line"/>
      <point x="622" y="24" type="line"/>
      <point x="622" y="142" type="line"/>
      <point x="430" y="142" type="line"/>
      <point x="430" y="0" type="line"/>
      <point x="458" y="0" type="line"/>
    </contour>
    <component base="Ka.sc"/>
  </outline>
</glyph>
<glyph name="Lambda.sc" format="1">
  <advance width="505"/>
  <outline>
    <contour>
      <point x="-11" y="0" type="line"/>
      <point x="162" y="0" type="line"/>
      <point x="210" y="212" type="line" smooth="yes"/>
      <point x="222" y="266"/>
      <point x="233" y="323"/>
      <point x="247" y="378" type="curve"/>
      <point x="251" y="378" type="line"/>
      <point x="265" y="323"/>
      <point x="276" y="266"/>
      <point x="288" y="212" type="curve" smooth="yes"/>
      <point x="338" y="0" type="line"/>
      <point x="517" y="0" type="line"/>
      <point x="356" y="532" type="line"/>
      <point x="150" y="532" type="line"/>
    </contour>
  </outline>
</glyph>
<glyph name="Lslash" format="1">
  <advance width="538"/>
  <outline>
    <contour>
      <point x="28" y="166" type="line"/>
      <point x="99" y="210" type="line"/>
      <point x="235" y="268" type="line"/>
      <point x="460" y="392" type="line"/>
      <point x="402" y="494" type="line"/>
      <point x="235" y="400" type="line"/>
      <point x="99" y="342" type="line"/>
      <point x="-30" y="268" type="line"/>
    </contour>
    <component base="L" xOffset="8"/>
  </outline>
</glyph>
<glyph name="Lslash.sc" format="1">
  <advance width="484"/>
  <outline>
    <contour>
      <point x="28" y="108" type="line"/>
      <point x="99" y="150" type="line"/>
      <point x="235" y="208" type="line"/>
      <point x="430" y="314" type="line"/>
      <point x="372" y="408" type="line"/>
      <point x="235" y="334" type="line"/>
      <point x="99" y="276" type="line"/>
      <point x="-30" y="202" type="line"/>
    </contour>
    <component base="L.sc" xOffset="8"/>
  </outline>
</glyph>
<glyph name="N" format="1">
	<advance width="672"/>
	<outline>
		<contour>
			<point x="72" y="0" type="line"/>
			<point x="236" y="0" type="line"/>
			<point x="236" y="188" type="line" smooth="yes"/>
			<point x="236" y="268"/>
			<point x="222" y="362"/>
			<point x="214" y="436" type="curve"/>
			<point x="218" y="436" type="line"/>
			<point x="280" y="291" type="line"/>
			<point x="424" y="0" type="line"/>
			<point x="600" y="0" type="line"/>
			<point x="600" y="650" type="line"/>
			<point x="436" y="650" type="line"/>
			<point x="436" y="462" type="line" smooth="yes"/>
			<point x="436" y="382"/>
			<point x="450" y="284"/>
			<point x="458" y="214" type="curve"/>
			<point x="454" y="214" type="line"/>
			<point x="392" y="360" type="line"/>
			<point x="248" y="650" type="line"/>
			<point x="72" y="650" type="line"/>
		</contour>
		<contour>
			<point name="aboveUC" x="336" y="672" type="move"/>
		</contour>
		<contour>
			<point name="belowLC" x="350" y="-22" type="move"/>
		</contour>
	</outline>
</glyph>
<glyph name="O.sc" format="1">
  <advance width="626"/>
  <outline>
    <contour>
      <point x="314" y="-12" type="curve" smooth="yes"/>
      <point x="473" y="-12"/>
      <point x="582" y="91"/>
      <point x="582" y="269" type="curve" smooth="yes"/>
      <point x="582" y="446"/>
      <point x="473" y="544"/>
      <point x="314" y="544" type="curve" smooth="yes"/>
      <point x="153" y="544"/>
      <point x="44" y="447"/>
      <point x="44" y="269" type="curve" smooth="yes"/>
      <point x="44" y="91"/>
      <point x="153" y="-12"/>
    </contour>
    <contour>
      <point x="314" y="128" type="curve" smooth="yes"/>
      <point x="254" y="128"/>
      <point x="220" y="182"/>
      <point x="220" y="269" type="curve" smooth="yes"/>
      <point x="220" y="356"/>
      <point x="254" y="404"/>
      <point x="314" y="404" type="curve" smooth="yes"/>
      <point x="372" y="404"/>
      <point x="406" y="356"/>
      <point x="406" y="269" type="curve" smooth="yes"/>
      <point x="406" y="182"/>
      <point x="372" y="128"/>
    </contour>
    <contour>
      <point x="314" y="564" type="move" name="aboveUC"/>
    </contour>
    <contour>
      <point x="315" y="-22" type="move" name="belowLC"/>
    </contour>
    <contour>
      <point x="314" y="0" type="move" name="ogonekUC"/>
    </contour>
    <contour>
      <point x="448" y="512" type="move" name="hornLC"/>
    </contour>
  </outline>
</glyph>
<glyph name="Obarcyr" format="1">
	<advance width="692"/>
	<outline>
		<component base="Fita"/>
		<contour>
			<point name="aboveUC" x="346" y="672" type="move"/>
		</contour>
	</outline>
</glyph>
<glyph name="Ohorn.sc" format="1">
	<advance width="626"/>
	<outline>
		<component base="O.sc"/>
		<component base="horncmb" xOffset="442" yOffset="32"/>
		<contour>
			<point name="aboveUC" x="312" y="564" type="move"/>
		</contour>
		<contour>
			<point name="belowLC" x="313" y="-22" type="move"/>
		</contour>
		<contour>
			<point name="ogonekUC" x="312" y="0" type="move"/>
		</contour>
	</outline>
</glyph>
<glyph name="Oslash" format="1">
  <advance width="692"/>
  <outline>
    <contour>
      <point x="124" y="-46" type="line"/>
      <point x="676" y="628" type="line"/>
      <point x="588" y="696" type="line"/>
      <point x="36" y="22" type="line"/>
    </contour>
    <component base="O"/>
    <contour>
      <point x="356" y="672" type="move" name="aboveUC"/>
    </contour>
  </outline>
</glyph>
<glyph name="Ohorn.sc" format="1">
  <advance width="626"/>
  <outline>
    <component base="O.sc"/>
    <component base="horncmb" xOffset="442" yOffset="32"/>
    <contour>
      <point x="312" y="564" type="move" name="aboveUC"/>
    </contour>
    <contour>
      <point x="313" y="-22" type="move" name="belowLC"/>
    </contour>
    <contour>
      <point x="312" y="0" type="move" name="ogonekUC"/>
    </contour>
  </outline>
</glyph>
<glyph name="P.sups" format="1">
  <advance width="417"/>
  <outline>
    <contour>
      <point x="47" y="368" type="line"/>
      <point x="167" y="368" type="line"/>
      <point x="167" y="503" type="line"/>
      <point x="221" y="503" type="line" smooth="yes"/>
      <point x="311" y="503"/>
      <point x="396" y="550"/>
      <point x="396" y="657" type="curve" smooth="yes"/>
      <point x="396" y="765"/>
      <point x="314" y="800"/>
      <point x="221" y="800" type="curve" smooth="yes"/>
      <point x="47" y="800" type="line"/>
    </contour>
    <contour>
      <point x="167" y="596" type="line"/>
      <point x="167" y="706" type="line"/>
      <point x="213" y="706" type="line" smooth="yes"/>
      <point x="256" y="706"/>
      <point x="279" y="692"/>
      <point x="279" y="657" type="curve" smooth="yes"/>
      <point x="279" y="620"/>
      <point x="258" y="596"/>
      <point x="213" y="596" type="curve" smooth="yes"/>
    </contour>
  </outline>
</glyph>
<glyph name="Pi" format="1">
  <advance width="670"/>
  <outline>
    <contour>
      <point x="72" y="0" type="line"/>
      <point x="244" y="0" type="line"/>
      <point x="244" y="506" type="line"/>
      <point x="426" y="506" type="line"/>
      <point x="426" y="0" type="line"/>
      <point x="598" y="0" type="line"/>
      <point x="598" y="650" type="line"/>
      <point x="72" y="650" type="line"/>
    </contour>
  </outline>
</glyph>
<glyph name="Sigma" format="1">
  <advance width="554"/>
  <outline>
    <contour>
      <point x="36" y="0" type="line"/>
      <point x="520" y="0" type="line"/>
      <point x="520" y="144" type="line"/>
      <point x="250" y="144" type="line"/>
      <point x="400" y="332" type="line"/>
      <point x="252" y="506" type="line"/>
      <point x="494" y="506" type="line"/>
      <point x="494" y="650" type="line"/>
      <point x="38" y="650" type="line"/>
      <point x="38" y="546" type="line"/>
      <point x="228" y="328" type="line"/>
      <point x="36" y="104" type="line"/>
    </contour>
  </outline>
</glyph>
<glyph name="Sigma.sc" format="1">
  <advance width="492"/>
  <outline>
    <contour>
      <point x="36" y="0" type="line"/>
      <point x="454" y="0" type="line"/>
      <point x="454" y="132" type="line"/>
      <point x="239" y="132" type="line"/>
      <point x="362" y="276" type="line"/>
      <point x="248" y="400" type="line"/>
      <point x="444" y="400" type="line"/>
      <point x="444" y="532" type="line"/>
      <point x="38" y="532" type="line"/>
      <point x="38" y="438" type="line"/>
      <point x="194" y="272" type="line"/>
      <point x="36" y="102" type="line"/>
    </contour>
  </outline>
</glyph>
<glyph name="T" format="1">
  <advance width="564"/>
  <outline>
    <contour>
      <point x="196" y="0" type="line"/>
      <point x="368" y="0" type="line"/>
      <point x="368" y="506" type="line"/>
      <point x="540" y="506" type="line"/>
      <point x="540" y="650" type="line"/>
      <point x="24" y="650" type="line"/>
      <point x="24" y="506" type="line"/>
      <point x="196" y="506" type="line"/>
    </contour>
    <contour>
      <point x="282" y="672" type="move" name="aboveUC"/>
    </contour>
    <contour>
      <point x="282" y="-22" type="move" name="belowLC"/>
    </contour>
    <contour>
      <point x="282" y="0" type="move" name="baseLC"/>
    </contour>
  </outline>
</glyph>
<glyph name="T.sc" format="1">
  <advance width="500"/>
  <outline>
    <contour>
      <point x="164" y="0" type="line"/>
      <point x="336" y="0" type="line"/>
      <point x="336" y="392" type="line"/>
      <point x="476" y="392" type="line"/>
      <point x="476" y="532" type="line"/>
      <point x="24" y="532" type="line"/>
      <point x="24" y="392" type="line"/>
      <point x="164" y="392" type="line"/>
    </contour>
    <contour>
      <point x="250" y="564" type="move" name="aboveUC"/>
    </contour>
    <contour>
      <point x="250" y="-22" type="move" name="belowLC"/>
    </contour>
    <contour>
      <point x="250" y="0" type="move" name="baseLC"/>
    </contour>
  </outline>
</glyph>
<glyph name="T.sups" format="1">
  <advance width="383"/>
  <outline>
    <contour>
      <point x="133" y="368" type="line"/>
      <point x="253" y="368" type="line"/>
      <point x="253" y="701" type="line"/>
      <point x="368" y="701" type="line"/>
      <point x="368" y="800" type="line"/>
      <point x="16" y="800" type="line"/>
      <point x="16" y="701" type="line"/>
      <point x="133" y="701" type="line"/>
    </contour>
  </outline>
</glyph>
<glyph name="Tau.sc" format="1">
  <advance width="500"/>
  <outline>
    <component base="T.sc"/>
    <contour>
      <point x="250" y="564" type="move" name="aboveLC"/>
    </contour>
    <contour>
      <point x="250" y="-22" type="move" name="belowLC"/>
    </contour>
    <contour>
      <point x="250" y="0" type="move" name="baseLC"/>
    </contour>
  </outline>
</glyph>
<glyph name="Tbar" format="1">
  <advance width="564"/>
  <outline>
    <contour>
      <point x="196" y="0" type="line"/>
      <point x="368" y="0" type="line"/>
      <point x="368" y="506" type="line"/>
      <point x="540" y="506" type="line"/>
      <point x="540" y="650" type="line"/>
      <point x="24" y="650" type="line"/>
      <point x="24" y="506" type="line"/>
      <point x="196" y="506" type="line"/>
    </contour>
    <contour>
      <point x="80" y="274" type="line"/>
      <point x="484" y="274" type="line"/>
      <point x="484" y="354" type="line"/>
      <point x="176" y="354" type="line"/>
      <point x="80" y="348" type="line"/>
    </contour>
  </outline>
</glyph>
<glyph name="Theta.sc" format="1">
  <advance width="626"/>
  <outline>
    <contour>
      <point x="242" y="206" type="line"/>
      <point x="386" y="206" type="line"/>
      <point x="386" y="330" type="line"/>
      <point x="242" y="330" type="line"/>
    </contour>
    <contour>
      <point x="314" y="-12" type="curve" smooth="yes"/>
      <point x="473" y="-12"/>
      <point x="582" y="88"/>
      <point x="582" y="269" type="curve" smooth="yes"/>
      <point x="582" y="450"/>
      <point x="473" y="544"/>
      <point x="314" y="544" type="curve" smooth="yes"/>
      <point x="153" y="544"/>
      <point x="44" y="450"/>
      <point x="44" y="269" type="curve" smooth="yes"/>
      <point x="44" y="88"/>
      <point x="153" y="-12"/>
    </contour>
    <contour>
      <point x="314" y="118" type="curve" smooth="yes"/>
      <point x="248" y="118"/>
      <point x="212" y="172"/>
      <point x="212" y="269" type="curve" smooth="yes"/>
      <point x="212" y="366"/>
      <point x="248" y="414"/>
      <point x="314" y="414" type="curve" smooth="yes"/>
      <point x="378" y="414"/>
      <point x="414" y="366"/>
      <point x="414" y="269" type="curve" smooth="yes"/>
      <point x="414" y="172"/>
      <point x="378" y="118"/>
    </contour>
  </outline>
</glyph>
<glyph name="Tse" format="1">
  <advance width="680"/>
  <outline>
    <contour>
      <point x="72" y="0" type="line"/>
      <point x="590" y="0" type="line"/>
      <point x="590" y="650" type="line"/>
      <point x="418" y="650" type="line"/>
      <point x="418" y="144" type="line"/>
      <point x="244" y="144" type="line"/>
      <point x="244" y="650" type="line"/>
      <point x="72" y="650" type="line"/>
    </contour>
    <contour>
      <point x="504" y="-188" type="line"/>
      <point x="658" y="-188" type="line"/>
      <point x="672" y="36" type="line"/>
      <point x="672" y="144" type="line"/>
      <point x="480" y="144" type="line"/>
      <point x="480" y="0" type="line"/>
      <point x="504" y="0" type="line"/>
    </contour>
    <contour>
      <point x="330" y="672" type="move" name="aboveUC"/>
    </contour>
  </outline>
</glyph>
<glyph name="Theta" format="1">
  <advance width="692"/>
  <outline>
    <contour>
      <point x="254" y="258" type="line"/>
      <point x="438" y="258" type="line"/>
      <point x="438" y="408" type="line"/>
      <point x="254" y="408" type="line"/>
    </contour>
    <component base="O"/>
  </outline>
</glyph>
<glyph name="U" format="1">
  <advance width="672"/>
  <outline>
    <contour>
      <point x="338" y="-12" type="curve" smooth="yes"/>
      <point x="520" y="-12"/>
      <point x="604" y="92"/>
      <point x="604" y="314" type="curve" smooth="yes"/>
      <point x="604" y="650" type="line"/>
      <point x="438" y="650" type="line"/>
      <point x="438" y="294" type="line" smooth="yes"/>
      <point x="438" y="178"/>
      <point x="406" y="136"/>
      <point x="338" y="136" type="curve" smooth="yes"/>
      <point x="270" y="136"/>
      <point x="240" y="178"/>
      <point x="240" y="294" type="curve" smooth="yes"/>
      <point x="240" y="650" type="line"/>
      <point x="68" y="650" type="line"/>
      <point x="68" y="314" type="line" smooth="yes"/>
      <point x="68" y="92"/>
      <point x="156" y="-12"/>
    </contour>
    <contour>
      <point x="336" y="672" type="move" name="aboveUC"/>
    </contour>
    <contour>
      <point x="336" y="-22" type="move" name="belowLC"/>
    </contour>
    <contour>
      <point x="336" y="0" type="move" name="ogonekUC"/>
    </contour>
    <contour>
      <point x="552" y="660" type="move" name="hornLC"/>
    </contour>
  </outline>
</glyph>
<glyph name="U.sc" format="1">
  <advance width="616"/>
  <outline>
    <contour>
      <point x="310" y="-12" type="curve" smooth="yes"/>
      <point x="475" y="-12"/>
      <point x="548" y="70"/>
      <point x="548" y="256" type="curve" smooth="yes"/>
      <point x="548" y="532" type="line"/>
      <point x="384" y="532" type="line"/>
      <point x="384" y="244" type="line" smooth="yes"/>
      <point x="384" y="160"/>
      <point x="367" y="128"/>
      <point x="312" y="128" type="curve" smooth="yes"/>
      <point x="258" y="128"/>
      <point x="238" y="160"/>
      <point x="238" y="244" type="curve" smooth="yes"/>
      <point x="238" y="532" type="line"/>
      <point x="68" y="532" type="line"/>
      <point x="68" y="256" type="line" smooth="yes"/>
      <point x="68" y="70"/>
      <point x="147" y="-12"/>
    </contour>
    <contour>
      <point x="308" y="564" type="move" name="aboveUC"/>
    </contour>
    <contour>
      <point x="308" y="-22" type="move" name="belowLC"/>
    </contour>
    <contour>
      <point x="308" y="0" type="move" name="ogonekUC"/>
    </contour>
    <contour>
      <point x="496" y="542" type="move" name="hornLC"/>
    </contour>
  </outline>
</glyph>
<glyph name="Uogonek" format="1">
  <advance width="672"/>
  <outline>
    <contour>
      <point x="360" y="-228" type="curve" smooth="yes"/>
      <point x="398" y="-228"/>
      <point x="446" y="-212"/>
      <point x="474" y="-190" type="curve"/>
      <point x="436" y="-104" type="line"/>
      <point x="427" y="-110"/>
      <point x="414" y="-118"/>
      <point x="402" y="-118" type="curve" smooth="yes"/>
      <point x="382" y="-118"/>
      <point x="362" y="-108"/>
      <point x="362" y="-84" type="curve" smooth="yes"/>
      <point x="362" y="-58"/>
      <point x="381" y="-26"/>
      <point x="430" y="-4" type="curve" smooth="yes"/>
      <point x="557" y="53"/>
      <point x="604" y="126"/>
      <point x="604" y="314" type="curve" smooth="yes"/>
      <point x="604" y="650" type="line"/>
      <point x="438" y="650" type="line"/>
      <point x="438" y="294" type="line" smooth="yes"/>
      <point x="438" y="178"/>
      <point x="406" y="136"/>
      <point x="338" y="136" type="curve" smooth="yes"/>
      <point x="270" y="136"/>
      <point x="240" y="178"/>
      <point x="240" y="294" type="curve" smooth="yes"/>
      <point x="240" y="650" type="line"/>
      <point x="68" y="650" type="line"/>
      <point x="68" y="314" type="line" smooth="yes"/>
      <point x="68" y="108"/>
      <point x="144" y="2"/>
      <point x="302" y="-10" type="curve"/>
      <point x="288" y="-22"/>
      <point x="238" y="-66"/>
      <point x="238" y="-130" type="curve" smooth="yes"/>
      <point x="238" y="-192"/>
      <point x="292" y="-228"/>
    </contour>
    <contour>
      <point x="336" y="672" type="move" name="aboveUC"/>
    </contour>
  </outline>
</glyph>
<glyph name="Uogonek.sc" format="1">
  <advance width="616"/>
  <outline>
    <contour>
      <point x="332" y="-228" type="curve" smooth="yes"/>
      <point x="370" y="-228"/>
      <point x="418" y="-212"/>
      <point x="446" y="-190" type="curve"/>
      <point x="408" y="-104" type="line"/>
      <point x="399" y="-110"/>
      <point x="386" y="-118"/>
      <point x="374" y="-118" type="curve" smooth="yes"/>
      <point x="354" y="-118"/>
      <point x="334" y="-108"/>
      <point x="334" y="-84" type="curve" smooth="yes"/>
      <point x="334" y="-58"/>
      <point x="353" y="-26"/>
      <point x="402" y="-4" type="curve"/>
      <point x="508" y="41"/>
      <point x="548" y="104"/>
      <point x="548" y="256" type="curve" smooth="yes"/>
      <point x="548" y="532" type="line"/>
      <point x="384" y="532" type="line"/>
      <point x="384" y="244" type="line" smooth="yes"/>
      <point x="384" y="160"/>
      <point x="367" y="128"/>
      <point x="312" y="128" type="curve" smooth="yes"/>
      <point x="258" y="128"/>
      <point x="238" y="160"/>
      <point x="238" y="244" type="curve" smooth="yes"/>
      <point x="238" y="532" type="line"/>
      <point x="68" y="532" type="line"/>
      <point x="68" y="256" type="line" smooth="yes"/>
      <point x="68" y="82"/>
      <point x="137" y="2"/>
      <point x="274" y="-10" type="curve"/>
      <point x="260" y="-22"/>
      <point x="210" y="-66"/>
      <point x="210" y="-130" type="curve" smooth="yes"/>
      <point x="210" y="-192"/>
      <point x="264" y="-228"/>
    </contour>
    <contour>
      <point x="308" y="564" type="move" name="aboveUC"/>
    </contour>
  </outline>
</glyph>
<glyph name="Ustraight" format="1">
	<advance width="544"/>
	<outline>
		<component base="Y"/>
		<contour>
			<point name="aboveUC" x="272" y="672" type="move"/>
		</contour>
	</outline>
</glyph>
<glyph name="Ustraightstroke" format="1">
  <advance width="544"/>
  <outline>
    <contour>
      <point x="44" y="204" type="line"/>
      <point x="500" y="204" type="line"/>
      <point x="500" y="284" type="line"/>
      <point x="140" y="284" type="line"/>
      <point x="44" y="278" type="line"/>
    </contour>
    <component base="Y"/>
    <contour>
      <point x="272" y="672" type="move" name="aboveUC"/>
    </contour>
  </outline>
</glyph>
<glyph name="W" format="1">
	<advance width="824"/>
	<outline>
		<contour>
			<point x="124" y="0" type="line"/>
			<point x="338" y="0" type="line"/>
			<point x="386" y="258" type="line"/>
			<point x="396" y="308"/>
			<point x="403" y="362"/>
			<point x="410" y="410" type="curve"/>
			<point x="414" y="410" type="line"/>
			<point x="420" y="362"/>
			<point x="428" y="308"/>
			<point x="438" y="258" type="curve"/>
			<point x="488" y="0" type="line"/>
			<point x="706" y="0" type="line"/>
			<point x="814" y="650" type="line"/>
			<point x="650" y="650" type="line"/>
			<point x="614" y="366" type="line"/>
			<point x="607" y="300"/>
			<point x="599" y="231"/>
			<point x="592" y="162" type="curve"/>
			<point x="588" y="162" type="line"/>
			<point x="576" y="231"/>
			<point x="564" y="301"/>
			<point x="552" y="366" type="curve"/>
			<point x="490" y="650" type="line"/>
			<point x="346" y="650" type="line"/>
			<point x="284" y="366" type="line"/>
			<point x="272" y="299"/>
			<point x="260" y="230"/>
			<point x="248" y="162" type="curve"/>
			<point x="244" y="162" type="line"/>
			<point x="237" y="230"/>
			<point x="229" y="298"/>
			<point x="222" y="366" type="curve"/>
			<point x="186" y="650" type="line"/>
			<point x="10" y="650" type="line"/>
		</contour>
		<contour>
			<point name="aboveUC" x="412" y="672" type="move"/>
		</contour>
		<contour>
			<point name="belowLC" x="414" y="-22" type="move"/>
		</contour>
	</outline>
</glyph>
<glyph name="Xi" format="1">
  <advance width="586"/>
  <outline>
    <contour>
      <point x="54" y="0" type="line"/>
      <point x="532" y="0" type="line"/>
      <point x="532" y="144" type="line"/>
      <point x="54" y="144" type="line"/>
    </contour>
    <contour>
      <point x="120" y="260" type="line"/>
      <point x="466" y="260" type="line"/>
      <point x="466" y="404" type="line"/>
      <point x="120" y="404" type="line"/>
    </contour>
    <contour>
      <point x="64" y="506" type="line"/>
      <point x="522" y="506" type="line"/>
      <point x="522" y="650" type="line"/>
      <point x="64" y="650" type="line"/>
    </contour>
  </outline>
</glyph>
<glyph name="Y.sc" format="1">
  <advance width="487"/>
  <outline>
    <contour>
      <point x="158" y="0" type="line"/>
      <point x="330" y="0" type="line"/>
      <point x="330" y="175" type="line"/>
      <point x="497" y="532" type="line"/>
      <point x="319" y="532" type="line"/>
      <point x="287" y="436" type="line"/>
      <point x="273" y="395"/>
      <point x="259" y="359"/>
      <point x="246" y="316" type="curve"/>
      <point x="242" y="316" type="line"/>
      <point x="229" y="359"/>
      <point x="216" y="395"/>
      <point x="204" y="436" type="curve"/>
      <point x="171" y="532" type="line"/>
      <point x="-10" y="532" type="line"/>
      <point x="158" y="175" type="line"/>
    </contour>
    <contour>
      <point x="240" y="564" type="move" name="aboveUC"/>
    </contour>
    <contour>
      <point x="242" y="-22" type="move" name="belowLC"/>
    </contour>
  </outline>
</glyph>
<glyph name="Yeru.sc" format="1">
	<advance width="802"/>
	<outline>
		<contour>
			<point x="558" y="0" type="line"/>
			<point x="730" y="0" type="line"/>
			<point x="730" y="532" type="line"/>
			<point x="558" y="532" type="line"/>
		</contour>
		<contour>
			<point x="72" y="0" type="line"/>
			<point x="268" y="0" type="line" smooth="yes"/>
			<point x="391" y="0"/>
			<point x="500" y="42"/>
			<point x="500" y="184" type="curve" smooth="yes"/>
			<point x="500" y="314"/>
			<point x="401" y="362"/>
			<point x="272" y="362" type="curve" smooth="yes"/>
			<point x="244" y="362" type="line"/>
			<point x="244" y="532" type="line"/>
			<point x="72" y="532" type="line"/>
		</contour>
		<contour>
			<point x="244" y="134" type="line"/>
			<point x="244" y="246" type="line"/>
			<point x="262" y="246" type="line" smooth="yes"/>
			<point x="312" y="246"/>
			<point x="338" y="230"/>
			<point x="338" y="190" type="curve" smooth="yes"/>
			<point x="338" y="150"/>
			<point x="306" y="134"/>
			<point x="262" y="134" type="curve" smooth="yes"/>
		</contour>
	</outline>
</glyph>
<glyph name="Z" format="1">
  <advance width="542"/>
  <outline>
    <contour>
      <point x="32" y="0" type="line"/>
      <point x="512" y="0" type="line"/>
      <point x="512" y="144" type="line"/>
      <point x="244" y="144" type="line"/>
      <point x="510" y="546" type="line"/>
      <point x="510" y="650" type="line"/>
      <point x="58" y="650" type="line"/>
      <point x="58" y="506" type="line"/>
      <point x="298" y="506" type="line"/>
      <point x="32" y="104" type="line"/>
    </contour>
    <contour>
      <point x="284" y="672" type="move" name="aboveUC"/>
    </contour>
    <contour>
      <point x="282" y="-22" type="move" name="belowLC"/>
    </contour>
  </outline>
</glyph>
<glyph name="Ze.sc" format="1">
  <advance width="505"/>
  <outline>
    <contour>
      <point x="242" y="-12" type="curve" smooth="yes"/>
      <point x="376" y="-12"/>
      <point x="476" y="46"/>
      <point x="476" y="160" type="curve" smooth="yes"/>
      <point x="476" y="216"/>
      <point x="438" y="262"/>
      <point x="388" y="278" type="curve"/>
      <point x="388" y="282" type="line"/>
      <point x="430" y="304"/>
      <point x="452" y="346"/>
      <point x="452" y="392" type="curve" smooth="yes"/>
      <point x="452" y="484"/>
      <point x="384" y="544"/>
      <point x="236" y="544" type="curve" smooth="yes"/>
      <point x="168" y="544"/>
      <point x="102" y="522"/>
      <point x="44" y="476" type="curve"/>
      <point x="124" y="368" type="line"/>
      <point x="163.638344662" y="401.692592963"/>
      <point x="198.823529412" y="414.0"/>
      <point x="230" y="414" type="curve" smooth="yes"/>
      <point x="262" y="414"/>
      <point x="286.0" y="398.25"/>
      <point x="286" y="372" type="curve" smooth="yes"/>
      <point x="286.0" y="340.0"/>
      <point x="270.0" y="324"/>
      <point x="230" y="324" type="curve" smooth="yes"/>
      <point x="164" y="324" type="line"/>
      <point x="164" y="218" type="line"/>
      <point x="246" y="218" type="line" smooth="yes"/>
      <point x="292.0" y="218"/>
      <point x="310.0" y="199.913043478"/>
      <point x="310" y="166" type="curve" smooth="yes"/>
      <point x="310.0" y="135.777777778"/>
      <point x="284" y="118"/>
      <point x="242" y="118" type="curve" smooth="yes"/>
      <point x="200.75" y="118.0"/>
      <point x="148.811799315" y="142.144769758"/>
      <point x="110" y="172" type="curve"/>
      <point x="32" y="60" type="line"/>
      <point x="94" y="8"/>
      <point x="174" y="-12"/>
    </contour>
  </outline>
</glyph>
<glyph name="Zhe" format="1">
  <advance width="892"/>
  <outline>
    <contour>
      <point x="0" y="0" type="line"/>
      <point x="184" y="0" type="line"/>
      <point x="308" y="264" type="line"/>
      <point x="364" y="264" type="line"/>
      <point x="364" y="0" type="line"/>
      <point x="528" y="0" type="line"/>
      <point x="528" y="264" type="line"/>
      <point x="584" y="264" type="line"/>
      <point x="708" y="0" type="line"/>
      <point x="892" y="0" type="line"/>
      <point x="674" y="402" type="line"/>
      <point x="528" y="402" type="line"/>
      <point x="528" y="650" type="line"/>
      <point x="364" y="650" type="line"/>
      <point x="364" y="402" type="line"/>
      <point x="218" y="402" type="line"/>
    </contour>
    <contour>
      <point x="708" y="340" type="line"/>
      <point x="758" y="452" type="line"/>
      <point x="776" y="490"/>
      <point x="796" y="502"/>
      <point x="826" y="502" type="curve" smooth="yes"/>
      <point x="832" y="502"/>
      <point x="844" y="502"/>
      <point x="856" y="498" type="curve"/>
      <point x="884" y="652" type="line"/>
      <point x="868" y="660"/>
      <point x="844" y="662"/>
      <point x="824" y="662" type="curve" smooth="yes"/>
      <point x="744" y="662"/>
      <point x="686" y="633"/>
      <point x="642" y="546" type="curve"/>
      <point x="560" y="374" type="line"/>
    </contour>
    <contour>
      <point x="184" y="340" type="line"/>
      <point x="332" y="374" type="line"/>
      <point x="250" y="546" type="line"/>
      <point x="206" y="633"/>
      <point x="148" y="662"/>
      <point x="68" y="662" type="curve" smooth="yes"/>
      <point x="48" y="662"/>
      <point x="24" y="660"/>
      <point x="8" y="652" type="curve"/>
      <point x="36" y="498" type="line"/>
      <point x="48" y="502"/>
      <point x="60" y="502"/>
      <point x="66" y="502" type="curve" smooth="yes"/>
      <point x="96" y="502"/>
      <point x="116" y="490"/>
      <point x="134" y="452" type="curve"/>
    </contour>
    <contour>
      <point x="446" y="672" type="move" name="aboveUC"/>
    </contour>
  </outline>
</glyph>
<glyph name="Zhedescender.sc" format="1">
  <advance width="840"/>
  <outline>
    <contour>
      <point x="668" y="-172" type="line"/>
      <point x="816" y="-172" type="line"/>
      <point x="832" y="24" type="line"/>
      <point x="832" y="142" type="line"/>
      <point x="640" y="142" type="line"/>
      <point x="640" y="0" type="line"/>
      <point x="668" y="0" type="line"/>
    </contour>
    <component base="Zhe.sc"/>
  </outline>
</glyph>
<glyph name="acutecmb" format="1">
  <advance width="0"/>
  <outline>
    <contour>
      <point x="20" y="572" type="line"/>
      <point x="210" y="730" type="line"/>
      <point x="94" y="844" type="line"/>
      <point x="-64" y="656" type="line"/>
    </contour>
    <contour>
      <point x="0" y="522" type="move" name="_aboveLC"/>
    </contour>
  </outline>
</glyph>
<glyph name="alpha" format="1">
	<advance width="608"/>
	<outline>
		<contour>
			<point x="236" y="-12" type="curve"/>
			<point x="292" y="-12"/>
			<point x="336" y="12"/>
			<point x="368" y="64" type="curve"/>
			<point x="372" y="64" type="line"/>
			<point x="396" y="6"/>
			<point x="438" y="-12"/>
			<point x="512" y="-12" type="curve" smooth="yes"/>
			<point x="556" y="-12"/>
			<point x="588" y="-4"/>
			<point x="608" y="6" type="curve"/>
			<point x="588" y="132" type="line"/>
			<point x="576" y="128"/>
			<point x="565" y="126"/>
			<point x="556" y="126" type="curve" smooth="yes"/>
			<point x="528" y="126"/>
			<point x="508" y="136"/>
			<point x="508" y="170" type="curve" smooth="yes"/>
			<point x="508" y="240"/>
			<point x="548" y="390"/>
			<point x="574" y="500" type="curve"/>
			<point x="404" y="500" type="line"/>
			<point x="390" y="424" type="line"/>
			<point x="386" y="424" type="line"/>
			<point x="352" y="486"/>
			<point x="308" y="512"/>
			<point x="254" y="512" type="curve" smooth="yes"/>
			<point x="138" y="512"/>
			<point x="32" y="414"/>
			<point x="32" y="250" type="curve" smooth="yes"/>
			<point x="32" y="88"/>
			<point x="112" y="-12"/>
		</contour>
		<contour>
			<point x="278" y="128" type="curve" smooth="yes"/>
			<point x="236" y="128"/>
			<point x="208" y="162"/>
			<point x="208" y="252" type="curve" smooth="yes"/>
			<point x="208" y="340"/>
			<point x="246" y="372"/>
			<point x="282" y="372" type="curve" smooth="yes"/>
			<point x="320" y="372"/>
			<point x="340" y="342"/>
			<point x="358" y="302" type="curve"/>
			<point x="352" y="218" type="line" smooth="yes"/>
			<point x="349" y="168"/>
			<point x="314" y="128"/>
		</contour>
		<contour>
			<point name="aboveLC" x="296" y="522" type="move"/>
		</contour>
		<contour>
			<point name="belowLC" x="314" y="-22" type="move"/>
		</contour>
	</outline>
</glyph>
<glyph name="alphalatin" format="1">
  <advance width="580"/>
  <outline>
    <contour>
      <point x="240" y="-12" type="curve" smooth="yes"/>
      <point x="284" y="-12"/>
      <point x="332" y="12"/>
      <point x="366" y="46" type="curve"/>
      <point x="370" y="46" type="line"/>
      <point x="382" y="0" type="line"/>
      <point x="522" y="0" type="line"/>
      <point x="522" y="500" type="line"/>
      <point x="388" y="500" type="line"/>
      <point x="374" y="450" type="line"/>
      <point x="370" y="450" type="line"/>
      <point x="332" y="494"/>
      <point x="292" y="512"/>
      <point x="244" y="512" type="curve" smooth="yes"/>
      <point x="142" y="512"/>
      <point x="36" y="414"/>
      <point x="36" y="250" type="curve" smooth="yes"/>
      <point x="36" y="88"/>
      <point x="116" y="-12"/>
    </contour>
    <contour>
      <point x="286" y="128" type="curve" smooth="yes"/>
      <point x="240" y="128"/>
      <point x="212" y="162"/>
      <point x="212" y="252" type="curve" smooth="yes"/>
      <point x="212" y="340"/>
      <point x="246" y="372"/>
      <point x="282" y="372" type="curve" smooth="yes"/>
      <point x="304" y="372"/>
      <point x="330" y="366"/>
      <point x="350" y="348" type="curve"/>
      <point x="350" y="164" type="line"/>
      <point x="332" y="136"/>
      <point x="312" y="128"/>
    </contour>
    <contour>
      <point x="306" y="522" type="move" name="aboveLC"/>
    </contour>
    <contour>
      <point x="308" y="-22" type="move" name="belowLC"/>
    </contour>
  </outline>
</glyph>
<glyph name="arrowdown" format="1">
  <advance width="616"/>
  <outline>
    <contour>
      <point x="306" y="-26" type="line"/>
      <point x="310" y="-26" type="line"/>
      <point x="578" y="254" type="line"/>
      <point x="486" y="334" type="line"/>
      <point x="376" y="204" type="line"/>
      <point x="376" y="530" type="line"/>
      <point x="240" y="530" type="line"/>
      <point x="240" y="204" type="line"/>
      <point x="130" y="334" type="line"/>
      <point x="38" y="254" type="line"/>
    </contour>
  </outline>
</glyph>
<glyph name="arrowright" format="1">
  <advance width="616"/>
  <outline>
    <contour>
      <point x="316" y="-18" type="line"/>
      <point x="596" y="250" type="line"/>
      <point x="596" y="254" type="line"/>
      <point x="316" y="522" type="line"/>
      <point x="236" y="430" type="line"/>
      <point x="366" y="320" type="line"/>
      <point x="40" y="320" type="line"/>
      <point x="40" y="184" type="line"/>
      <point x="366" y="184" type="line"/>
      <point x="236" y="74" type="line"/>
    </contour>
  </outline>
</glyph>
<glyph name="arrowup" format="1">
  <advance width="616"/>
  <outline>
    <contour>
      <point x="240" y="-26" type="line"/>
      <point x="376" y="-26" type="line"/>
      <point x="376" y="300" type="line"/>
      <point x="486" y="170" type="line"/>
      <point x="578" y="250" type="line"/>
      <point x="310" y="530" type="line"/>
      <point x="306" y="530" type="line"/>
      <point x="38" y="250" type="line"/>
      <point x="130" y="170" type="line"/>
      <point x="240" y="300" type="line"/>
    </contour>
  </outline>
</glyph>
<glyph name="asperacutecmb" format="1">
	<outline>
		<contour>
			<point x="-68" y="574" type="curve"/>
			<point x="-56" y="640" type="line"/>
			<point x="-72" y="643"/>
			<point x="-86" y="649"/>
			<point x="-86" y="668" type="curve" smooth="yes"/>
			<point x="-86" y="685"/>
			<point x="-68" y="696"/>
			<point x="-18" y="700" type="curve"/>
			<point x="-26" y="794" type="line"/>
			<point x="-146" y="790"/>
			<point x="-198" y="747"/>
			<point x="-198" y="686" type="curve" smooth="yes"/>
			<point x="-198" y="611"/>
			<point x="-129" y="582"/>
		</contour>
		<contour>
			<point x="8" y="574" type="line"/>
			<point x="102" y="556" type="line"/>
			<point x="174" y="776" type="line"/>
			<point x="38" y="802" type="line"/>
		</contour>
		<contour>
			<point name="_aboveLC" x="0" y="522" type="move"/>
		</contour>
	</outline>
</glyph>
<glyph name="aturned" format="1">
  <advance width="542"/>
  <outline>
    <contour>
      <point x="280" y="-12" type="curve" smooth="yes"/>
      <point x="353" y="-12"/>
      <point x="423" y="12"/>
      <point x="490" y="54" type="curve"/>
      <point x="430" y="166" type="line"/>
      <point x="378" y="138"/>
      <point x="343" y="124"/>
      <point x="306" y="124" type="curve" smooth="yes"/>
      <point x="256" y="124"/>
      <point x="229" y="138"/>
      <point x="224" y="174" type="curve"/>
      <point x="416" y="195"/>
      <point x="496" y="266"/>
      <point x="496" y="372" type="curve" smooth="yes"/>
      <point x="496" y="449"/>
      <point x="448" y="512"/>
      <point x="360" y="512" type="curve" smooth="yes"/>
      <point x="294" y="512"/>
      <point x="244" y="484"/>
      <point x="208" y="442" type="curve"/>
      <point x="204" y="442" type="line"/>
      <point x="192" y="500" type="line"/>
      <point x="52" y="500" type="line"/>
      <point x="52" y="226" type="line" smooth="yes"/>
      <point x="52" y="62"/>
      <point x="138" y="-12"/>
    </contour>
    <contour>
      <point x="224" y="278" type="curve"/>
      <point x="224" y="336" type="line"/>
      <point x="243" y="362"/>
      <point x="264" y="380"/>
      <point x="292" y="380" type="curve" smooth="yes"/>
      <point x="316" y="380"/>
      <point x="332" y="367"/>
      <point x="332" y="344" type="curve" smooth="yes"/>
      <point x="332" y="316"/>
      <point x="306" y="290"/>
    </contour>
    <contour>
      <point x="285" y="522" type="move" name="aboveLC"/>
    </contour>
    <contour>
      <point x="288" y="-22" type="move" name="belowLC"/>
    </contour>
    <contour>
      <point x="360" y="0" type="move" name="ogonekLC"/>
    </contour>
  </outline>
</glyph>
<glyph name="backslash" format="1">
  <advance width="334"/>
  <outline>
    <contour>
      <point x="210" y="-160" type="line"/>
      <point x="320" y="-160" type="line"/>
      <point x="144" y="710" type="line"/>
      <point x="34" y="710" type="line"/>
    </contour>
  </outline>
</glyph>
<glyph name="bracketleft" format="1">
  <advance width="360"/>
  <outline>
    <contour>
      <point x="84" y="-152" type="line"/>
      <point x="308" y="-152" type="line"/>
      <point x="308" y="-62" type="line"/>
      <point x="212" y="-62" type="line"/>
      <point x="212" y="618" type="line"/>
      <point x="308" y="618" type="line"/>
      <point x="308" y="708" type="line"/>
      <point x="84" y="708" type="line"/>
    </contour>
  </outline>
</glyph>
<glyph name="bracketright" format="1">
  <advance width="360"/>
  <outline>
    <contour>
      <point x="52" y="-152" type="line"/>
      <point x="276" y="-152" type="line"/>
      <point x="276" y="708" type="line"/>
      <point x="52" y="708" type="line"/>
      <point x="52" y="618" type="line"/>
      <point x="148" y="618" type="line"/>
      <point x="148" y="-62" type="line"/>
      <point x="52" y="-62" type="line"/>
    </contour>
  </outline>
</glyph>
<glyph name="breve" format="1">
	<advance width="560"/>
	<outline>
		<component base="brevecmb" xOffset="280"/>
		<contour>
			<point name="_aboveLC" x="280" y="522" type="move"/>
		</contour>
		<contour>
			<point name="aboveLC" x="280" y="720" type="move"/>
		</contour>
	</outline>
</glyph>
<glyph name="brevecmb.cyrcap" format="1">
	<outline>
		<contour>
			<point x="0" y="694" type="curve" smooth="yes"/>
			<point x="134" y="694"/>
			<point x="184" y="750"/>
			<point x="188" y="834" type="curve"/>
			<point x="44" y="834" type="line"/>
			<point x="42" y="797"/>
			<point x="28" y="778"/>
			<point x="0" y="778" type="curve" smooth="yes"/>
			<point x="-28" y="778"/>
			<point x="-42" y="797"/>
			<point x="-44" y="834" type="curve"/>
			<point x="-188" y="834" type="line"/>
			<point x="-184" y="750"/>
			<point x="-134" y="694"/>
		</contour>
		<contour>
			<point name="_aboveUC" x="0" y="672" type="move"/>
		</contour>
	</outline>
</glyph>
<glyph name="brevecmb" format="1">
  <advance width="0"/>
  <outline>
    <contour>
      <point x="0" y="572" type="curve" smooth="yes"/>
      <point x="118" y="572"/>
      <point x="172" y="638"/>
      <point x="174" y="732" type="curve"/>
      <point x="78" y="748" type="line"/>
      <point x="72" y="708"/>
      <point x="48" y="678"/>
      <point x="0" y="678" type="curve" smooth="yes"/>
      <point x="-48" y="678"/>
      <point x="-72" y="708"/>
      <point x="-78" y="748" type="curve"/>
      <point x="-174" y="732" type="line"/>
      <point x="-172" y="638"/>
      <point x="-117" y="572"/>
    </contour>
    <contour>
      <point x="0" y="522" type="move" name="_aboveLC"/>
    </contour>
  </outline>
</glyph>
<glyph name="brevecmb.cyr" format="1">
  <advance width="0"/>
  <outline>
    <contour>
      <point x="0" y="572" type="curve" smooth="yes"/>
      <point x="116.0" y="572.0"/>
      <point x="175.97591198" y="631.711290937"/>
      <point x="178" y="740" type="curve"/>
      <point x="46" y="740" type="line"/>
      <point x="43.947439596" y="684.580869092"/>
      <point x="34.0" y="662.0"/>
      <point x="0" y="662" type="curve" smooth="yes"/>
      <point x="-34.0" y="662.0"/>
      <point x="-43.947439596" y="684.580869092"/>
      <point x="-46" y="740" type="curve"/>
      <point x="-178" y="740" type="line"/>
      <point x="-175.97591198" y="631.711290937"/>
      <point x="-116.0" y="572.0"/>
    </contour>
    <contour>
      <point x="0" y="522" type="move" name="_aboveLC"/>
    </contour>
  </outline>
</glyph>
<glyph name="brevecmb.cyrcap" format="1">
  <advance width="0"/>
  <outline>
    <contour>
      <point x="0" y="694" type="curve" smooth="yes"/>
      <point x="134" y="694"/>
      <point x="184" y="750"/>
      <point x="188" y="834" type="curve"/>
      <point x="44" y="834" type="line"/>
      <point x="42" y="797"/>
      <point x="28" y="778"/>
      <point x="0" y="778" type="curve" smooth="yes"/>
      <point x="-28" y="778"/>
      <point x="-42" y="797"/>
      <point x="-44" y="834" type="curve"/>
      <point x="-188" y="834" type="line"/>
      <point x="-184" y="750"/>
      <point x="-134" y="694"/>
    </contour>
    <contour>
      <point x="0" y="672" type="move" name="_aboveUC"/>
    </contour>
  </outline>
</glyph>
<glyph name="breveinvertedcmb" format="1">
	<outline>
		<contour>
			<point x="-78" y="564" type="line"/>
			<point x="-72" y="604"/>
			<point x="-48" y="634"/>
			<point x="0" y="634" type="curve" smooth="yes"/>
			<point x="48" y="634"/>
			<point x="72" y="604"/>
			<point x="78" y="564" type="curve"/>
			<point x="174" y="580" type="line"/>
			<point x="172" y="674"/>
			<point x="117" y="740"/>
			<point x="0" y="740" type="curve" smooth="yes"/>
			<point x="-118" y="740"/>
			<point x="-172" y="674"/>
			<point x="-174" y="580" type="curve"/>
		</contour>
		<contour>
			<point name="_aboveLC" x="0" y="522" type="move"/>
		</contour>
	</outline>
</glyph>
<glyph name="brevetilde.cap" format="1">
  <advance width="0"/>
  <outline>
    <contour>
      <point x="0" y="700" type="curve" smooth="yes"/>
      <point x="102" y="700"/>
      <point x="154" y="742"/>
      <point x="162" y="814" type="curve"/>
      <point x="82" y="828" type="line"/>
      <point x="73" y="802"/>
      <point x="52" y="780"/>
      <point x="0" y="780" type="curve" smooth="yes"/>
      <point x="-52" y="780"/>
      <point x="-73" y="802"/>
      <point x="-82" y="828" type="curve"/>
      <point x="-162" y="814" type="line"/>
      <point x="-154" y="742"/>
      <point x="-102" y="700"/>
    </contour>
    <contour>
      <point x="-156" y="864" type="curve"/>
      <point x="-76" y="854" type="line"/>
      <point x="-72" y="880"/>
      <point x="-62" y="890"/>
      <point x="-46" y="890" type="curve" smooth="yes"/>
      <point x="-24" y="890"/>
      <point x="6" y="848"/>
      <point x="58" y="848" type="curve" smooth="yes"/>
      <point x="114" y="848"/>
      <point x="152" y="881"/>
      <point x="156" y="966" type="curve"/>
      <point x="76" y="976" type="line"/>
      <point x="72" y="950"/>
      <point x="62" y="940"/>
      <point x="46" y="940" type="curve" smooth="yes"/>
      <point x="24" y="940"/>
      <point x="-6" y="982"/>
      <point x="-58" y="982" type="curve" smooth="yes"/>
      <point x="-114" y="982"/>
      <point x="-152" y="949"/>
    </contour>
    <contour>
      <point x="0" y="672" type="move" name="_aboveUC"/>
    </contour>
  </outline>
</glyph>
<glyph name="brevetilde" format="1">
  <advance width="0"/>
  <outline>
    <contour>
      <point x="0" y="572" type="curve" smooth="yes"/>
      <point x="105.675324675" y="572.0"/>
      <point x="151.998624734" y="623.985330492"/>
      <point x="158" y="688" type="curve"/>
      <point x="76" y="702" type="line"/>
      <point x="69.4665214297" y="678.043911909"/>
      <point x="49.5151515152" y="656.0"/>
      <point x="0" y="656" type="curve" smooth="yes"/>
      <point x="-49.5151515152" y="656.0"/>
      <point x="-69.4665214297" y="678.043911909"/>
      <point x="-76" y="702" type="curve"/>
      <point x="-158" y="688" type="line"/>
      <point x="-151.998624734" y="623.985330492"/>
      <point x="-105.675324675" y="572.0"/>
    </contour>
    <contour>
      <point x="-162" y="730" type="curve"/>
      <point x="-76" y="722" type="line"/>
      <point x="-70" y="748"/>
      <point x="-60" y="758"/>
      <point x="-46" y="758" type="curve" smooth="yes"/>
      <point x="-20" y="758"/>
      <point x="2" y="716"/>
      <point x="56" y="716" type="curve" smooth="yes"/>
      <point x="113" y="716"/>
      <point x="153" y="750"/>
      <point x="162" y="836" type="curve"/>
      <point x="76" y="844" type="line"/>
      <point x="70" y="818"/>
      <point x="60" y="808"/>
      <point x="46" y="808" type="curve" smooth="yes"/>
      <point x="20" y="808"/>
      <point x="-2" y="850"/>
      <point x="-56" y="850" type="curve" smooth="yes"/>
      <point x="-113" y="850"/>
      <point x="-153" y="816"/>
    </contour>
    <contour>
      <point x="0" y="522" type="move" name="_aboveLC"/>
    </contour>
  </outline>
</glyph>
<glyph name="brokenbar" format="1">
  <advance width="278"/>
  <outline>
    <contour>
      <point x="84" y="320" type="line"/>
      <point x="194" y="320" type="line"/>
      <point x="194" y="750" type="line"/>
      <point x="84" y="750" type="line"/>
    </contour>
    <contour>
      <point x="84" y="-250" type="line"/>
      <point x="194" y="-250" type="line"/>
      <point x="194" y="200" type="line"/>
      <point x="84" y="200" type="line"/>
    </contour>
  </outline>
</glyph>
<glyph name="bullet" format="1">
  <advance width="360"/>
  <outline>
    <contour>
      <point x="180" y="116" type="curve" smooth="yes"/>
      <point x="260" y="116"/>
      <point x="320" y="180"/>
      <point x="320" y="262" type="curve" smooth="yes"/>
      <point x="320" y="344"/>
      <point x="260" y="408"/>
      <point x="180" y="408" type="curve" smooth="yes"/>
      <point x="100" y="408"/>
      <point x="40" y="344"/>
      <point x="40" y="262" type="curve" smooth="yes"/>
      <point x="40" y="180"/>
      <point x="100" y="116"/>
    </contour>
  </outline>
</glyph>
<glyph name="caronbelowcmb" format="1">
	<outline>
		<component base="caroncmb" yOffset="-804"/>
		<contour>
			<point name="_belowLC" x="0" y="-22" type="move"/>
		</contour>
	</outline>
</glyph>
<glyph name="cedillacmb" format="1">
  <advance width="0"/>
  <outline>
    <contour>
      <point x="-108" y="-244" type="line"/>
      <point x="24" y="-240"/>
      <point x="102" y="-208"/>
      <point x="102" y="-136" type="curve" smooth="yes"/>
      <point x="102" y="-94"/>
      <point x="76" y="-72"/>
      <point x="24" y="-60" type="curve"/>
      <point x="52" y="4" type="line"/>
      <point x="-46" y="4" type="line"/>
      <point x="-96" y="-96" type="line"/>
      <point x="-34" y="-104"/>
      <point x="-20" y="-118"/>
      <point x="-20" y="-136" type="curve" smooth="yes"/>
      <point x="-20" y="-164"/>
      <point x="-44" y="-174"/>
      <point x="-120" y="-178" type="curve"/>
    </contour>
    <contour>
      <point x="0" y="0" type="move" name="_baseLC"/>
    </contour>
  </outline>
</glyph>
<glyph name="check" format="1">
  <advance width="660"/>
  <outline>
    <contour>
      <point x="170" y="-20" type="curve"/>
      <point x="328" y="-2" type="line"/>
      <point x="410" y="294"/>
      <point x="534" y="482"/>
      <point x="660" y="600" type="curve"/>
      <point x="556" y="690" type="line"/>
      <point x="428" y="558"/>
      <point x="316" y="346"/>
      <point x="244" y="106" type="curve"/>
      <point x="240" y="106" type="line"/>
      <point x="207" y="187"/>
      <point x="170" y="269"/>
      <point x="118" y="350" type="curve"/>
      <point x="10" y="280" type="line"/>
      <point x="83" y="178"/>
      <point x="127" y="94"/>
    </contour>
  </outline>
</glyph>
<glyph name="checkbox" format="1">
  <advance width="810"/>
  <outline>
    <contour>
      <point x="74" y="-10" type="line"/>
      <point x="666" y="-10" type="line"/>
      <point x="736" y="70" type="line"/>
      <point x="736" y="676" type="line"/>
      <point x="154" y="676" type="line"/>
      <point x="74" y="606" type="line"/>
    </contour>
    <contour>
      <point x="138" y="54" type="line"/>
      <point x="138" y="582" type="line"/>
      <point x="642" y="582" type="line"/>
      <point x="642" y="54" type="line"/>
    </contour>
  </outline>
</glyph>
<glyph name="checkedbox" format="1">
  <advance width="810"/>
  <outline>
    <contour>
      <point x="320" y="110" type="curve"/>
      <point x="478" y="128" type="line"/>
      <point x="558" y="422"/>
      <point x="688" y="612"/>
      <point x="810" y="730" type="curve"/>
      <point x="706" y="820" type="line"/>
      <point x="582" y="688"/>
      <point x="460" y="476"/>
      <point x="390" y="236" type="curve"/>
      <point x="386" y="236" type="line"/>
      <point x="359" y="308"/>
      <point x="332" y="378"/>
      <point x="288" y="450" type="curve"/>
      <point x="180" y="380" type="line"/>
      <point x="243" y="287"/>
      <point x="283" y="212"/>
    </contour>
    <component base="checkbox"/>
  </outline>
</glyph>
<glyph name="chi" format="1">
  <advance width="544"/>
  <outline>
    <contour>
      <point x="186" y="-188" type="line"/>
      <point x="278" y="30" type="line"/>
      <point x="282" y="30" type="line"/>
      <point x="390" y="-188" type="line"/>
      <point x="560" y="-152" type="line"/>
      <point x="364" y="170" type="line"/>
      <point x="534" y="500" type="line"/>
      <point x="356" y="500" type="line"/>
      <point x="282" y="316" type="line"/>
      <point x="278" y="316" type="line"/>
      <point x="176" y="512" type="line"/>
      <point x="6" y="476" type="line"/>
      <point x="195" y="166" type="line"/>
      <point x="8" y="-176" type="line"/>
    </contour>
  </outline>
</glyph>
<glyph name="circumflexcmb" format="1">
  <advance width="0"/>
  <outline>
    <contour>
      <point x="-194" y="618" type="line"/>
      <point x="-130" y="558" type="line"/>
      <point x="-2" y="642" type="line"/>
      <point x="2" y="642" type="line"/>
      <point x="130" y="558" type="line"/>
      <point x="194" y="618" type="line"/>
      <point x="88" y="746" type="line"/>
      <point x="-88" y="746" type="line"/>
    </contour>
    <contour>
      <point x="0" y="522" type="move" name="_aboveLC"/>
    </contour>
    <contour>
      <point x="0" y="740" type="move" name="aboveLC"/>
    </contour>
  </outline>
</glyph>
<glyph name="circumflexcmb.cap" format="1">
  <advance width="0"/>
  <outline>
    <contour>
      <point x="-178" y="724" type="line"/>
      <point x="-104" y="680" type="line"/>
      <point x="-2" y="760" type="line"/>
      <point x="2" y="760" type="line"/>
      <point x="104" y="680" type="line"/>
      <point x="178" y="724" type="line"/>
      <point x="94" y="834" type="line"/>
      <point x="-94" y="834" type="line"/>
    </contour>
    <contour>
      <point x="0" y="672" type="move" name="_aboveUC"/>
    </contour>
  </outline>
</glyph>
<glyph name="circumflexgrave.cap" format="1">
	<outline>
		<contour>
			<point x="-94" y="680" type="line"/>
			<point x="-2" y="752" type="line"/>
			<point x="2" y="752" type="line"/>
			<point x="94" y="680" type="line"/>
			<point x="162" y="724" type="line"/>
			<point x="74" y="828" type="line"/>
			<point x="-74" y="828" type="line"/>
			<point x="-162" y="724" type="line"/>
		</contour>
		<contour>
			<point x="-114" y="814" type="line"/>
			<point x="-216" y="898" type="line"/>
			<point x="-270" y="830" type="line"/>
			<point x="-164" y="758" type="line"/>
		</contour>
		<contour>
			<point name="_aboveUC" x="0" y="672" type="move"/>
		</contour>
	</outline>
</glyph>
<glyph name="circumflexhoi.cap" format="1">
	<outline>
		<contour>
			<point x="-94" y="680" type="line"/>
			<point x="-2" y="752" type="line"/>
			<point x="2" y="752" type="line"/>
			<point x="94" y="680" type="line"/>
			<point x="162" y="724" type="line"/>
			<point x="74" y="828" type="line"/>
			<point x="-74" y="828" type="line"/>
			<point x="-162" y="724" type="line"/>
		</contour>
		<contour>
			<point x="146" y="748" type="line"/>
			<point x="217" y="752"/>
			<point x="270" y="776"/>
			<point x="270" y="838" type="curve" smooth="yes"/>
			<point x="270" y="882"/>
			<point x="236" y="918"/>
			<point x="114" y="922" type="curve"/>
			<point x="98" y="854" type="line"/>
			<point x="149" y="850"/>
			<point x="162" y="840"/>
			<point x="162" y="824" type="curve" smooth="yes"/>
			<point x="162" y="808"/>
			<point x="150" y="803"/>
			<point x="134" y="800" type="curve"/>
		</contour>
		<contour>
			<point name="_aboveUC" x="0" y="672" type="move"/>
		</contour>
	</outline>
</glyph>
<glyph name="circumflextilde.cap" format="1">
	<outline>
		<contour>
			<point x="-94" y="680" type="line"/>
			<point x="-2" y="742" type="line"/>
			<point x="2" y="742" type="line"/>
			<point x="94" y="680" type="line"/>
			<point x="162" y="724" type="line"/>
			<point x="74" y="818" type="line"/>
			<point x="-74" y="818" type="line"/>
			<point x="-162" y="724" type="line"/>
		</contour>
		<contour>
			<point x="-156" y="854" type="curve"/>
			<point x="-76" y="844" type="line"/>
			<point x="-72" y="870"/>
			<point x="-62" y="880"/>
			<point x="-46" y="880" type="curve" smooth="yes"/>
			<point x="-24" y="880"/>
			<point x="6" y="838"/>
			<point x="58" y="838" type="curve" smooth="yes"/>
			<point x="114" y="838"/>
			<point x="152" y="871"/>
			<point x="156" y="956" type="curve"/>
			<point x="76" y="966" type="line"/>
			<point x="72" y="940"/>
			<point x="62" y="930"/>
			<point x="46" y="930" type="curve" smooth="yes"/>
			<point x="24" y="930"/>
			<point x="-6" y="972"/>
			<point x="-58" y="972" type="curve" smooth="yes"/>
			<point x="-114" y="972"/>
			<point x="-152" y="939"/>
		</contour>
		<contour>
			<point name="_aboveUC" x="0" y="672" type="move"/>
		</contour>
	</outline>
</glyph>
<glyph name="commabelowcmb" format="1">
	<outline>
		<contour>
			<point x="-108" y="-244" type="line"/>
			<point x="24" y="-240"/>
			<point x="102" y="-208"/>
			<point x="102" y="-136" type="curve" smooth="yes"/>
			<point x="102" y="-86"/>
			<point x="66" y="-58"/>
			<point x="-48" y="-50" type="curve"/>
			<point x="-80" y="-110" type="line"/>
			<point x="-36" y="-114"/>
			<point x="-20" y="-126"/>
			<point x="-20" y="-142" type="curve" smooth="yes"/>
			<point x="-20" y="-164"/>
			<point x="-44" y="-174"/>
			<point x="-120" y="-178" type="curve"/>
		</contour>
		<contour>
			<point name="_belowLC" x="0" y="-22" type="move"/>
		</contour>
	</outline>
</glyph>
<glyph name="dialytikagravecmb" format="1">
  <advance width="0"/>
  <outline>
    <contour>
      <point x="-140" y="580" type="curve" smooth="yes"/>
      <point x="-106" y="580"/>
      <point x="-78" y="604"/>
      <point x="-78" y="642" type="curve" smooth="yes"/>
      <point x="-78" y="680"/>
      <point x="-106" y="704"/>
      <point x="-140" y="704" type="curve" smooth="yes"/>
      <point x="-174" y="704"/>
      <point x="-202" y="680"/>
      <point x="-202" y="642" type="curve" smooth="yes"/>
      <point x="-202" y="604"/>
      <point x="-174" y="580"/>
    </contour>
    <contour>
      <point x="-18" y="568" type="line"/>
      <point x="56" y="584" type="line"/>
      <point x="22" y="812" type="line"/>
      <point x="-94" y="788" type="line"/>
    </contour>
    <contour>
      <point x="140" y="580" type="curve" smooth="yes"/>
      <point x="174" y="580"/>
      <point x="202" y="604"/>
      <point x="202" y="642" type="curve" smooth="yes"/>
      <point x="202" y="680"/>
      <point x="174" y="704"/>
      <point x="140" y="704" type="curve" smooth="yes"/>
      <point x="106" y="704"/>
      <point x="78" y="680"/>
      <point x="78" y="642" type="curve" smooth="yes"/>
      <point x="78" y="604"/>
      <point x="106" y="580"/>
    </contour>
    <contour>
      <point x="0" y="522" type="move" name="_aboveLC"/>
    </contour>
  </outline>
</glyph>
<glyph name="dieresisbelowcmb" format="1">
  <advance width="0"/>
  <outline>
    <component base="dieresiscmb" yOffset="-786"/>
    <contour>
      <point x="0" y="-22" type="move" name="_belowLC"/>
    </contour>
  </outline>
</glyph>
<glyph name="divide" format="1">
  <advance width="540"/>
  <outline>
    <contour>
      <point x="34" y="270" type="line"/>
      <point x="506" y="270" type="line"/>
      <point x="506" y="390" type="line"/>
      <point x="34" y="390" type="line"/>
    </contour>
    <contour>
      <point x="270" y="64" type="curve" smooth="yes"/>
      <point x="322" y="64"/>
      <point x="362" y="100"/>
      <point x="362" y="150" type="curve" smooth="yes"/>
      <point x="362" y="200"/>
      <point x="322" y="236"/>
      <point x="270" y="236" type="curve" smooth="yes"/>
      <point x="218" y="236"/>
      <point x="178" y="200"/>
      <point x="178" y="150" type="curve" smooth="yes"/>
      <point x="178" y="100"/>
      <point x="218" y="64"/>
    </contour>
    <contour>
      <point x="270" y="424" type="curve" smooth="yes"/>
      <point x="322" y="424"/>
      <point x="362" y="460"/>
      <point x="362" y="510" type="curve" smooth="yes"/>
      <point x="362" y="560"/>
      <point x="322" y="596"/>
      <point x="270" y="596" type="curve" smooth="yes"/>
      <point x="218" y="596"/>
      <point x="178" y="560"/>
      <point x="178" y="510" type="curve" smooth="yes"/>
      <point x="178" y="460"/>
      <point x="218" y="424"/>
    </contour>
  </outline>
</glyph>
<glyph name="dong" format="1">
	<advance width="540"/>
	<outline>
		<contour>
			<point x="226" y="118" type="curve" smooth="yes"/>
			<point x="266" y="118"/>
			<point x="304" y="134"/>
			<point x="330" y="162" type="curve"/>
			<point x="332" y="162" type="line"/>
			<point x="342" y="128" type="line"/>
			<point x="458" y="128" type="line"/>
			<point x="458" y="646" type="line"/>
			<point x="318" y="646" type="line"/>
			<point x="318" y="512" type="line"/>
			<point x="322" y="452" type="line"/>
			<point x="296" y="476"/>
			<point x="272" y="488"/>
			<point x="230" y="488" type="curve" smooth="yes"/>
			<point x="150" y="488"/>
			<point x="64" y="422"/>
			<point x="64" y="308" type="curve" smooth="yes"/>
			<point x="64" y="186"/>
			<point x="128" y="118"/>
		</contour>
		<contour>
			<point x="262" y="230" type="curve" smooth="yes"/>
			<point x="230" y="230"/>
			<point x="208" y="252"/>
			<point x="208" y="307" type="curve" smooth="yes"/>
			<point x="208" y="352"/>
			<point x="238" y="374"/>
			<point x="266" y="374" type="curve" smooth="yes"/>
			<point x="286" y="374"/>
			<point x="302" y="368"/>
			<point x="318" y="354" type="curve"/>
			<point x="318" y="260" type="line"/>
			<point x="300" y="238"/>
			<point x="286" y="230"/>
		</contour>
		<contour>
			<point x="174" y="520" type="line"/>
			<point x="458" y="520" type="line"/>
			<point x="529" y="526" type="line"/>
			<point x="529" y="604" type="line"/>
			<point x="174" y="604" type="line"/>
		</contour>
		<contour>
			<point x="78" y="0" type="line"/>
			<point x="492" y="0" type="line"/>
			<point x="492" y="84" type="line"/>
			<point x="78" y="84" type="line"/>
		</contour>
	</outline>
</glyph>
<glyph name="dotaccentcmb.cap" format="1">
	<outline>
		<contour>
			<point x="0" y="696" type="curve" smooth="yes"/>
			<point x="56" y="696"/>
			<point x="96" y="732"/>
			<point x="96" y="782" type="curve" smooth="yes"/>
			<point x="96" y="832"/>
			<point x="56" y="868"/>
			<point x="0" y="868" type="curve" smooth="yes"/>
			<point x="-56" y="868"/>
			<point x="-96" y="832"/>
			<point x="-96" y="782" type="curve" smooth="yes"/>
			<point x="-96" y="732"/>
			<point x="-56" y="696"/>
		</contour>
		<contour>
			<point name="_aboveUC" x="0" y="672" type="move"/>
		</contour>
	</outline>
</glyph>
<glyph name="dotaccentcmb" format="1">
  <advance width="0"/>
  <outline>
    <contour>
      <point x="0" y="562" type="curve" smooth="yes"/>
      <point x="54" y="562"/>
      <point x="92" y="598"/>
      <point x="92" y="648" type="curve" smooth="yes"/>
      <point x="92" y="698"/>
      <point x="54" y="734"/>
      <point x="0" y="734" type="curve" smooth="yes"/>
      <point x="-54" y="734"/>
      <point x="-92" y="698"/>
      <point x="-92" y="648" type="curve" smooth="yes"/>
      <point x="-92" y="598"/>
      <point x="-54" y="562"/>
    </contour>
    <contour>
      <point x="0" y="522" type="move" name="_aboveLC"/>
    </contour>
    <contour>
      <point x="0" y="730" type="move" name="aboveLC"/>
    </contour>
  </outline>
</glyph>
<glyph name="dotbelowcmb" format="1">
  <advance width="0"/>
  <outline>
    <component base="dotaccentcmb" yOffset="-796"/>
    <contour>
      <point x="0" y="-22" type="move" name="_belowLC"/>
    </contour>
  </outline>
</glyph>
<glyph name="dotlessi" format="1">
	<advance width="288"/>
	<outline>
		<contour>
			<point x="58" y="0" type="line"/>
			<point x="230" y="0" type="line"/>
			<point x="230" y="500" type="line"/>
			<point x="58" y="500" type="line"/>
		</contour>
		<contour>
			<point name="aboveLC" x="144" y="522" type="move"/>
		</contour>
		<contour>
			<point name="belowLC" x="144" y="-22" type="move"/>
		</contour>
		<contour>
			<point name="ogonekLC" x="190" y="0" type="move"/>
		</contour>
	</outline>
</glyph>
<glyph name="dotlessjstrokehook" format="1">
	<advance width="340"/>
	<outline>
		<contour>
			<point x="14" y="220" type="line"/>
			<point x="322" y="220" type="line"/>
			<point x="322" y="300" type="line"/>
			<point x="90" y="300" type="line"/>
			<point x="14" y="294" type="line"/>
		</contour>
		<component base="esh" xOffset="24"/>
	</outline>
</glyph>
<glyph name="e.sups" format="1">
	<advance width="350"/>
	<outline>
		<contour>
			<point x="196" y="360" type="curve" smooth="yes"/>
			<point x="234" y="360"/>
			<point x="282" y="372"/>
			<point x="320" y="398" type="curve"/>
			<point x="280" y="468" type="line"/>
			<point x="256" y="454"/>
			<point x="234" y="450"/>
			<point x="212" y="450" type="curve" smooth="yes"/>
			<point x="176" y="450"/>
			<point x="146" y="460"/>
			<point x="136" y="502" type="curve"/>
			<point x="324" y="502" type="line"/>
			<point x="328" y="516"/>
			<point x="330" y="526"/>
			<point x="330" y="546" type="curve" smooth="yes"/>
			<point x="330" y="636"/>
			<point x="282" y="708"/>
			<point x="184" y="708" type="curve" smooth="yes"/>
			<point x="98" y="708"/>
			<point x="22" y="640"/>
			<point x="22" y="534" type="curve" smooth="yes"/>
			<point x="22" y="426"/>
			<point x="98" y="360"/>
		</contour>
		<contour>
			<point x="134" y="568" type="line"/>
			<point x="140" y="604"/>
			<point x="160" y="618"/>
			<point x="185" y="618" type="curve" smooth="yes"/>
			<point x="218" y="618"/>
			<point x="230" y="596"/>
			<point x="230" y="568" type="curve"/>
		</contour>
	</outline>
</glyph>
<glyph name="egrave.sups" format="1">
	<advance width="350"/>
	<outline>
		<contour>
			<point x="170" y="742" type="line"/>
			<point x="230" y="800" type="line"/>
			<point x="120" y="930" type="line"/>
			<point x="40" y="852" type="line"/>
		</contour>
		<component base="e.sups"/>
	</outline>
</glyph>
<glyph name="el" format="1">
  <advance width="590"/>
  <outline>
    <contour>
      <point x="69" y="-12" type="curve" smooth="yes"/>
      <point x="174" y="-12"/>
      <point x="233" y="52"/>
      <point x="250" y="164" type="curve" smooth="yes"/>
      <point x="260" y="230"/>
      <point x="268" y="300"/>
      <point x="276" y="366" type="curve"/>
      <point x="360" y="366" type="line"/>
      <point x="360" y="0" type="line"/>
      <point x="532" y="0" type="line"/>
      <point x="532" y="500" type="line"/>
      <point x="140" y="500" type="line"/>
      <point x="129" y="404"/>
      <point x="120" y="308"/>
      <point x="107" y="213" type="curve" smooth="yes"/>
      <point x="101" y="166"/>
      <point x="82" y="150"/>
      <point x="58" y="150" type="curve" smooth="yes"/>
      <point x="48" y="150"/>
      <point x="40" y="152"/>
      <point x="32" y="154" type="curve"/>
      <point x="4" y="0" type="line"/>
      <point x="24" y="-8"/>
      <point x="44" y="-12"/>
    </contour>
  </outline>
</glyph>
<glyph name="emdash.sups" format="1">
  <advance width="564"/>
  <outline>
    <contour>
      <point x="44" y="530" type="line"/>
      <point x="521" y="530" type="line"/>
      <point x="521" y="602" type="line"/>
      <point x="44" y="602" type="line"/>
    </contour>
  </outline>
</glyph>
<glyph name="en" format="1">
  <advance width="590"/>
  <outline>
    <contour>
      <point x="58" y="0" type="line"/>
      <point x="230" y="0" type="line"/>
      <point x="230" y="178" type="line"/>
      <point x="360" y="178" type="line"/>
      <point x="360" y="0" type="line"/>
      <point x="532" y="0" type="line"/>
      <point x="532" y="500" type="line"/>
      <point x="360" y="500" type="line"/>
      <point x="360" y="328" type="line"/>
      <point x="230" y="328" type="line"/>
      <point x="230" y="500" type="line"/>
      <point x="58" y="500" type="line"/>
    </contour>
  </outline>
</glyph>
<glyph name="endash.sups" format="1">
  <advance width="350"/>
  <outline>
    <contour>
      <point x="44" y="530" type="line"/>
      <point x="306" y="530" type="line"/>
      <point x="306" y="602" type="line"/>
      <point x="44" y="602" type="line"/>
    </contour>
  </outline>
</glyph>
<glyph name="exclamdown" format="1">
  <advance width="360"/>
  <outline>
    <contour>
      <point x="94" y="-170" type="line"/>
      <point x="266" y="-170" type="line"/>
      <point x="260" y="-22" type="line"/>
      <point x="236" y="256" type="line"/>
      <point x="124" y="256" type="line"/>
      <point x="100" y="-22" type="line"/>
    </contour>
    <contour>
      <point x="180" y="304" type="curve" smooth="yes"/>
      <point x="238" y="304"/>
      <point x="280" y="350"/>
      <point x="280" y="408" type="curve" smooth="yes"/>
      <point x="280" y="466"/>
      <point x="238" y="512"/>
      <point x="180" y="512" type="curve" smooth="yes"/>
      <point x="122" y="512"/>
      <point x="80" y="466"/>
      <point x="80" y="408" type="curve" smooth="yes"/>
      <point x="80" y="350"/>
      <point x="122" y="304"/>
    </contour>
  </outline>
</glyph>
<glyph name="exclamdown.sc" format="1">
  <advance width="360"/>
  <outline>
    <contour>
      <point x="94" y="0" type="line"/>
      <point x="266" y="0" type="line"/>
      <point x="260" y="112" type="line"/>
      <point x="236" y="288" type="line"/>
      <point x="124" y="288" type="line"/>
      <point x="100" y="112" type="line"/>
    </contour>
    <contour>
      <point x="180" y="336" type="curve" smooth="yes"/>
      <point x="238" y="336"/>
      <point x="280" y="382"/>
      <point x="280" y="440" type="curve" smooth="yes"/>
      <point x="280" y="498"/>
      <point x="238" y="544"/>
      <point x="180" y="544" type="curve" smooth="yes"/>
      <point x="122" y="544"/>
      <point x="80" y="498"/>
      <point x="80" y="440" type="curve" smooth="yes"/>
      <point x="80" y="382"/>
      <point x="122" y="336"/>
    </contour>
  </outline>
</glyph>
<glyph name="five.cap" format="1">
  <advance width="540"/>
  <outline>
    <contour>
      <point x="252" y="-12" type="curve" smooth="yes"/>
      <point x="381.0" y="-12.0"/>
      <point x="492.0" y="72.9285714286"/>
      <point x="492" y="220" type="curve" smooth="yes"/>
      <point x="492.0" y="359.528301887"/>
      <point x="398.0" y="424.0"/>
      <point x="288" y="424" type="curve" smooth="yes"/>
      <point x="267" y="424"/>
      <point x="250" y="422"/>
      <point x="228" y="414" type="curve"/>
      <point x="236" y="506" type="line"/>
      <point x="464" y="506" type="line"/>
      <point x="464" y="650" type="line"/>
      <point x="88" y="650" type="line"/>
      <point x="72" y="324" type="line"/>
      <point x="146" y="276" type="line"/>
      <point x="184" y="300"/>
      <point x="200" y="306"/>
      <point x="234" y="306" type="curve" smooth="yes"/>
      <point x="284.0" y="306.0"/>
      <point x="320.0" y="275.693877551"/>
      <point x="320" y="216" type="curve" smooth="yes"/>
      <point x="320.0" y="154.536585366"/>
      <point x="286.0" y="126.0"/>
      <point x="226" y="126" type="curve" smooth="yes"/>
      <point x="180" y="126"/>
      <point x="136" y="152"/>
      <point x="98" y="186" type="curve"/>
      <point x="22" y="78" type="line"/>
      <point x="74" y="26"/>
      <point x="148" y="-12"/>
    </contour>
  </outline>
</glyph>
<glyph name="four.cap" format="1">
  <advance width="540"/>
  <outline>
    <contour>
      <point x="290" y="0" type="line"/>
      <point x="450" y="0" type="line"/>
      <point x="450" y="650" type="line"/>
      <point x="236" y="650" type="line"/>
      <point x="20" y="278" type="line"/>
      <point x="20" y="158" type="line"/>
      <point x="518" y="158" type="line"/>
      <point x="518" y="288" type="line"/>
      <point x="182" y="288" type="line"/>
      <point x="240" y="396" type="line"/>
      <point x="258" y="434"/>
      <point x="276" y="472"/>
      <point x="292" y="510" type="curve"/>
      <point x="296" y="510" type="line"/>
      <point x="294" y="467"/>
      <point x="290" y="403"/>
      <point x="290" y="360" type="curve" smooth="yes"/>
    </contour>
  </outline>
</glyph>
<glyph name="four.dnom" format="1">
  <advance width="380"/>
  <outline>
    <contour>
      <point x="212" y="0" type="line"/>
      <point x="322" y="0" type="line"/>
      <point x="322" y="390" type="line"/>
      <point x="164" y="390" type="line"/>
      <point x="32" y="142" type="line"/>
      <point x="32" y="80" type="line"/>
      <point x="380" y="80" type="line"/>
      <point x="380" y="160" type="line"/>
      <point x="144" y="160" type="line"/>
      <point x="178" y="234" type="line"/>
      <point x="214" y="310" type="line"/>
      <point x="218" y="310" type="line"/>
      <point x="212" y="190" type="line"/>
    </contour>
  </outline>
</glyph>
<glyph name="glottalstopreversedmod" format="1">
  <advance width="358"/>
  <outline>
    <contour>
      <point x="131" y="368" type="line"/>
      <point x="250" y="368" type="line"/>
      <point x="250" y="575" type="line"/>
      <point x="174" y="625"/>
      <point x="150" y="653"/>
      <point x="150" y="690" type="curve" smooth="yes"/>
      <point x="150" y="724"/>
      <point x="174" y="740"/>
      <point x="208" y="740" type="curve" smooth="yes"/>
      <point x="234" y="740"/>
      <point x="259" y="724"/>
      <point x="278" y="701" type="curve"/>
      <point x="336" y="775" type="line"/>
      <point x="304" y="810"/>
      <point x="258" y="835"/>
      <point x="194" y="835" type="curve" smooth="yes"/>
      <point x="107" y="835"/>
      <point x="31" y="789"/>
      <point x="31" y="695" type="curve" smooth="yes"/>
      <point x="31" y="624"/>
      <point x="72" y="581"/>
      <point x="131" y="533" type="curve"/>
    </contour>
  </outline>
</glyph>
<glyph name="gravecmb.cap" format="1">
  <advance width="0"/>
  <outline>
    <contour>
      <point x="8" y="674" type="line"/>
      <point x="84" y="760" type="line"/>
      <point x="-98" y="904" type="line"/>
      <point x="-188" y="794" type="line"/>
    </contour>
    <contour>
      <point x="0" y="672" type="move" name="_aboveUC"/>
    </contour>
  </outline>
</glyph>
<glyph name="guilsinglleft" format="1">
  <advance width="300"/>
  <outline>
    <contour>
      <point x="184" y="52" type="line"/>
      <point x="246" y="102" type="line"/>
      <point x="138" y="252" type="line"/>
      <point x="246" y="402" type="line"/>
      <point x="184" y="452" type="line"/>
      <point x="50" y="312" type="line"/>
      <point x="50" y="192" type="line"/>
    </contour>
  </outline>
</glyph>
<glyph name="guilsinglright" format="1">
  <advance width="300"/>
  <outline>
    <contour>
      <point x="116" y="52" type="line"/>
      <point x="250" y="192" type="line"/>
      <point x="250" y="312" type="line"/>
      <point x="116" y="452" type="line"/>
      <point x="54" y="402" type="line"/>
      <point x="162" y="252" type="line"/>
      <point x="54" y="102" type="line"/>
    </contour>
  </outline>
</glyph>
<glyph name="hard" format="1">
  <advance width="634"/>
  <outline>
    <contour>
      <point x="166" y="0" type="line"/>
      <point x="380" y="0" type="line" smooth="yes"/>
      <point x="502" y="0"/>
      <point x="600" y="42"/>
      <point x="600" y="177" type="curve" smooth="yes"/>
      <point x="600" y="308"/>
      <point x="502" y="350"/>
      <point x="380" y="350" type="curve" smooth="yes"/>
      <point x="338" y="350" type="line"/>
      <point x="338" y="500" type="line"/>
      <point x="26" y="500" type="line"/>
      <point x="26" y="366" type="line"/>
      <point x="166" y="366" type="line"/>
    </contour>
    <contour>
      <point x="338" y="130" type="line"/>
      <point x="338" y="224" type="line"/>
      <point x="374" y="224" type="line" smooth="yes"/>
      <point x="416" y="224"/>
      <point x="436" y="208"/>
      <point x="436" y="178" type="curve" smooth="yes"/>
      <point x="436" y="146"/>
      <point x="416" y="130"/>
      <point x="374" y="130" type="curve" smooth="yes"/>
    </contour>
  </outline>
</glyph>
<glyph name="hbar" format="1">
	<advance width="582"/>
	<outline>
		<contour>
			<point x="58" y="0" type="line"/>
			<point x="230" y="0" type="line"/>
			<point x="230" y="276" type="line"/>
			<point x="256" y="300"/>
			<point x="274" y="314"/>
			<point x="306" y="314" type="curve" smooth="yes"/>
			<point x="340" y="314"/>
			<point x="356" y="298"/>
			<point x="356" y="234" type="curve" smooth="yes"/>
			<point x="356" y="0" type="line"/>
			<point x="528" y="0" type="line"/>
			<point x="528" y="256" type="line" smooth="yes"/>
			<point x="528" y="380"/>
			<point x="482" y="460"/>
			<point x="372" y="460" type="curve" smooth="yes"/>
			<point x="304" y="460"/>
			<point x="256" y="426"/>
			<point x="222" y="396" type="curve"/>
			<point x="230" y="482" type="line"/>
			<point x="230" y="696" type="line"/>
			<point x="58" y="696" type="line"/>
		</contour>
		<contour>
			<point x="-8" y="550" type="line"/>
			<point x="394" y="550" type="line"/>
			<point x="394" y="630" type="line"/>
			<point x="68" y="630" type="line"/>
			<point x="-8" y="624" type="line"/>
		</contour>
	</outline>
</glyph>
<glyph name="hoicmb" format="1">
	<outline>
		<contour>
			<point x="-48" y="566" type="line"/>
			<point x="34" y="570"/>
			<point x="104" y="602"/>
			<point x="104" y="674" type="curve" smooth="yes"/>
			<point x="104" y="748"/>
			<point x="58" y="802"/>
			<point x="-88" y="806" type="curve"/>
			<point x="-98" y="702" type="line"/>
			<point x="-40" y="698"/>
			<point x="-20" y="684"/>
			<point x="-20" y="662" type="curve" smooth="yes"/>
			<point x="-20" y="642"/>
			<point x="-38" y="635"/>
			<point x="-60" y="632" type="curve"/>
		</contour>
		<contour>
			<point name="_aboveLC" x="0" y="522" type="move"/>
		</contour>
	</outline>
</glyph>
<glyph name="hturned" format="1">
  <advance width="582"/>
  <outline>
    <contour>
      <point x="352" y="-176" type="line"/>
      <point x="524" y="-176" type="line"/>
      <point x="524" y="500" type="line"/>
      <point x="352" y="500" type="line"/>
      <point x="352" y="178" type="line"/>
      <point x="330" y="146"/>
      <point x="308" y="134"/>
      <point x="276" y="134" type="curve" smooth="yes"/>
      <point x="242" y="134"/>
      <point x="226" y="150"/>
      <point x="226" y="214" type="curve" smooth="yes"/>
      <point x="226" y="500" type="line"/>
      <point x="54" y="500" type="line"/>
      <point x="54" y="192" type="line" smooth="yes"/>
      <point x="54" y="68"/>
      <point x="100" y="-12"/>
      <point x="210" y="-12" type="curve" smooth="yes"/>
      <point x="278" y="-12"/>
      <point x="326" y="20"/>
      <point x="360" y="56" type="curve"/>
      <point x="352" y="-34" type="line"/>
    </contour>
    <contour>
      <point x="290" y="522" type="move" name="aboveLC"/>
    </contour>
    <contour>
      <point x="308" y="-22" type="move" name="belowLC"/>
    </contour>
  </outline>
</glyph>
<glyph name="hungarumlautcmb" format="1">
  <advance width="0"/>
  <outline>
    <contour>
      <point x="-52" y="564" type="line"/>
      <point x="60" y="738" type="line"/>
      <point x="-54" y="788" type="line"/>
      <point x="-142" y="604" type="line"/>
    </contour>
    <contour>
      <point x="138" y="564" type="line"/>
      <point x="250" y="738" type="line"/>
      <point x="136" y="788" type="line"/>
      <point x="48" y="604" type="line"/>
    </contour>
    <contour>
      <point x="0" y="522" type="move" name="_aboveLC"/>
    </contour>
  </outline>
</glyph>
<glyph name="i.sups" format="1">
  <advance width="196"/>
  <outline>
    <contour>
      <point x="98" y="738" type="curve" smooth="yes"/>
      <point x="136" y="738"/>
      <point x="164" y="762"/>
      <point x="164" y="796" type="curve" smooth="yes"/>
      <point x="164" y="830"/>
      <point x="136" y="854"/>
      <point x="98" y="854" type="curve" smooth="yes"/>
      <point x="59" y="854"/>
      <point x="32" y="830"/>
      <point x="32" y="796" type="curve" smooth="yes"/>
      <point x="32" y="762"/>
      <point x="59" y="738"/>
    </contour>
    <contour>
      <point x="38" y="368" type="line"/>
      <point x="158" y="368" type="line"/>
      <point x="158" y="700" type="line"/>
      <point x="38" y="700" type="line"/>
    </contour>
  </outline>
</glyph>
<glyph name="iotaadscript" format="1">
	<advance width="316"/>
	<outline>
		<contour>
			<point x="222" y="-12" type="curve" smooth="yes"/>
			<point x="270" y="-12"/>
			<point x="296" y="-4"/>
			<point x="320" y="6" type="curve"/>
			<point x="300" y="132" type="line"/>
			<point x="290" y="128"/>
			<point x="276" y="126"/>
			<point x="268" y="126" type="curve" smooth="yes"/>
			<point x="238" y="126"/>
			<point x="220" y="136"/>
			<point x="220" y="170" type="curve" smooth="yes"/>
			<point x="220" y="224"/>
			<point x="226" y="334"/>
			<point x="232" y="420" type="curve"/>
			<point x="58" y="420" type="line"/>
			<point x="58" y="176" type="line" smooth="yes"/>
			<point x="58" y="64"/>
			<point x="96" y="-12"/>
		</contour>
	</outline>
</glyph>
<glyph name="k" format="1">
	<advance width="568"/>
	<outline>
		<contour>
			<point x="58" y="0" type="line"/>
			<point x="226" y="0" type="line"/>
			<point x="226" y="120" type="line"/>
			<point x="278" y="178" type="line"/>
			<point x="378" y="0" type="line"/>
			<point x="564" y="0" type="line"/>
			<point x="376" y="292" type="line"/>
			<point x="554" y="500" type="line"/>
			<point x="368" y="500" type="line"/>
			<point x="230" y="326" type="line"/>
			<point x="226" y="326" type="line"/>
			<point x="226" y="696" type="line"/>
			<point x="58" y="696" type="line"/>
		</contour>
		<contour>
			<point name="aboveLC" x="146" y="730" type="move"/>
		</contour>
		<contour>
			<point name="belowLC" x="304" y="-22" type="move"/>
		</contour>
	</outline>
</glyph>
<glyph name="k.sups" format="1">
  <advance width="384"/>
  <outline>
    <contour>
      <point x="38" y="368" type="line"/>
      <point x="158" y="368" type="line"/>
      <point x="158" y="448" type="line"/>
      <point x="186" y="482" type="line"/>
      <point x="252" y="368" type="line"/>
      <point x="380" y="368" type="line"/>
      <point x="252" y="558" type="line"/>
      <point x="374" y="700" type="line"/>
      <point x="246" y="700" type="line"/>
      <point x="162" y="586" type="line"/>
      <point x="158" y="586" type="line"/>
      <point x="158" y="828" type="line"/>
      <point x="38" y="828" type="line"/>
    </contour>
  </outline>
</glyph>
<glyph name="kabashkir" format="1">
  <advance width="672"/>
  <outline>
    <contour>
      <point x="486" y="232" type="line"/>
      <point x="520" y="306" type="line" smooth="yes"/>
      <point x="537" y="344"/>
      <point x="556" y="350"/>
      <point x="580" y="350" type="curve" smooth="yes"/>
      <point x="587" y="350"/>
      <point x="594" y="348"/>
      <point x="600" y="346" type="curve"/>
      <point x="626" y="504" type="line"/>
      <point x="612" y="510"/>
      <point x="598" y="512"/>
      <point x="582" y="512" type="curve" smooth="yes"/>
      <point x="504" y="512"/>
      <point x="454" y="492"/>
      <point x="414" y="408" type="curve" smooth="yes"/>
      <point x="344" y="264" type="line"/>
    </contour>
    <contour>
      <point x="166" y="0" type="line"/>
      <point x="338" y="0" type="line"/>
      <point x="338" y="190" type="line"/>
      <point x="374" y="190" type="line"/>
      <point x="480" y="0" type="line"/>
      <point x="668" y="0" type="line"/>
      <point x="460" y="324" type="line"/>
      <point x="338" y="324" type="line"/>
      <point x="338" y="500" type="line"/>
      <point x="26" y="500" type="line"/>
      <point x="26" y="366" type="line"/>
      <point x="166" y="366" type="line"/>
    </contour>
  </outline>
</glyph>
<glyph name="kgreenlandic" format="1">
  <advance width="568"/>
  <outline>
    <contour>
      <point x="58" y="0" type="line"/>
      <point x="230" y="0" type="line"/>
      <point x="230" y="114" type="line"/>
      <point x="278" y="172" type="line"/>
      <point x="378" y="0" type="line"/>
      <point x="564" y="0" type="line"/>
      <point x="380" y="292" type="line"/>
      <point x="554" y="500" type="line"/>
      <point x="368" y="500" type="line"/>
      <point x="234" y="322" type="line"/>
      <point x="230" y="322" type="line"/>
      <point x="230" y="500" type="line"/>
      <point x="58" y="500" type="line"/>
    </contour>
  </outline>
</glyph>
<glyph name="l" format="1">
  <advance width="298"/>
  <outline>
    <contour>
      <point x="212" y="-12" type="curve" smooth="yes"/>
      <point x="250" y="-12"/>
      <point x="278" y="-6"/>
      <point x="296" y="2" type="curve"/>
      <point x="276" y="128" type="line"/>
      <point x="268" y="126"/>
      <point x="264" y="126"/>
      <point x="258" y="126" type="curve" smooth="yes"/>
      <point x="246" y="126"/>
      <point x="230" y="136"/>
      <point x="230" y="170" type="curve" smooth="yes"/>
      <point x="230" y="696" type="line"/>
      <point x="58" y="696" type="line"/>
      <point x="58" y="176" type="line" smooth="yes"/>
      <point x="58" y="64"/>
      <point x="96" y="-12"/>
    </contour>
    <contour>
      <point x="143" y="730" type="move" name="aboveLC"/>
    </contour>
    <contour>
      <point x="143" y="-22" type="move" name="belowLC"/>
    </contour>
  </outline>
</glyph>
<glyph name="leniscmb" format="1">
  <advance width="0"/>
  <outline>
    <component base="hoicmb"/>
    <contour>
      <point x="0" y="522" type="move" name="_aboveLC"/>
    </contour>
  </outline>
</glyph>
<glyph name="lenisgravecmb" format="1">
	<outline>
		<contour>
			<point x="-158" y="574" type="line"/>
			<point x="-97" y="582"/>
			<point x="-28" y="611"/>
			<point x="-28" y="686" type="curve" smooth="yes"/>
			<point x="-28" y="747"/>
			<point x="-80" y="790"/>
			<point x="-200" y="794" type="curve"/>
			<point x="-208" y="700" type="line"/>
			<point x="-158" y="696"/>
			<point x="-140" y="685"/>
			<point x="-140" y="668" type="curve" smooth="yes"/>
			<point x="-140" y="649"/>
			<point x="-154" y="643"/>
			<point x="-170" y="640" type="curve"/>
		</contour>
		<contour>
			<point x="70" y="556" type="line"/>
			<point x="164" y="574" type="line"/>
			<point x="134" y="802" type="line"/>
			<point x="-2" y="776" type="line"/>
		</contour>
		<contour>
			<point name="_aboveLC" x="0" y="522" type="move"/>
		</contour>
	</outline>
</glyph>
<glyph name="lezh" format="1">
  <advance width="664"/>
  <outline>
    <contour>
      <point x="119" y="366" type="line"/>
      <point x="354" y="366" type="line"/>
      <point x="354" y="500" type="line"/>
      <point x="119" y="500" type="line"/>
    </contour>
    <component base="l.alt"/>
    <component base="ezh" xOffset="190"/>
  </outline>
</glyph>
<glyph name="lslash" format="1">
  <advance width="318"/>
  <outline>
    <contour>
      <point x="30" y="232" type="line"/>
      <point x="78" y="260" type="line"/>
      <point x="209" y="320" type="line"/>
      <point x="346" y="394" type="line"/>
      <point x="288" y="500" type="line"/>
      <point x="209" y="456" type="line"/>
      <point x="78" y="396" type="line"/>
      <point x="-28" y="338" type="line"/>
    </contour>
    <component base="l" xOffset="12"/>
  </outline>
</glyph>
<glyph name="macroncmb.cap" format="1">
  <advance width="0"/>
  <outline>
    <contour>
      <point x="-158" y="716" type="line"/>
      <point x="158" y="716" type="line"/>
      <point x="158" y="824" type="line"/>
      <point x="-158" y="824" type="line"/>
    </contour>
    <contour>
      <point x="0" y="672" type="move" name="_aboveUC"/>
    </contour>
  </outline>
</glyph>
<glyph name="nretroflex" format="1">
  <advance width="582"/>
  <outline>
    <contour>
      <point x="540" y="-188" type="curve" smooth="yes"/>
      <point x="581" y="-188"/>
      <point x="604" y="-182"/>
      <point x="624" y="-174" type="curve"/>
      <point x="594" y="-48" type="line"/>
      <point x="584" y="-52"/>
      <point x="577" y="-54"/>
      <point x="568" y="-54" type="curve" smooth="yes"/>
      <point x="539" y="-54"/>
      <point x="528" y="-37"/>
      <point x="528" y="10" type="curve"/>
      <point x="528" y="308" type="line" smooth="yes"/>
      <point x="528" y="432"/>
      <point x="482" y="512"/>
      <point x="372" y="512" type="curve" smooth="yes"/>
      <point x="304" y="512"/>
      <point x="254" y="478"/>
      <point x="214" y="440" type="curve"/>
      <point x="210" y="440" type="line"/>
      <point x="198" y="500" type="line"/>
      <point x="58" y="500" type="line"/>
      <point x="58" y="0" type="line"/>
      <point x="230" y="0" type="line"/>
      <point x="230" y="328" type="line"/>
      <point x="256" y="352"/>
      <point x="274" y="366"/>
      <point x="306" y="366" type="curve" smooth="yes"/>
      <point x="340" y="366"/>
      <point x="356" y="350"/>
      <point x="356" y="286" type="curve" smooth="yes"/>
      <point x="356" y="16" type="line" smooth="yes"/>
      <point x="356" y="-91"/>
      <point x="398" y="-188"/>
    </contour>
    <contour>
      <point x="314" y="522" type="move" name="aboveLC"/>
    </contour>
  </outline>
</glyph>
<glyph name="nu" format="1">
  <advance width="542"/>
  <outline>
    <contour>
      <point x="178" y="0" type="curve"/>
      <point x="340" y="0" type="line"/>
      <point x="454" y="188"/>
      <point x="495" y="322"/>
      <point x="526" y="500" type="curve"/>
      <point x="356" y="500" type="line"/>
      <point x="348" y="392"/>
      <point x="336" y="282"/>
      <point x="291" y="175" type="curve"/>
      <point x="287" y="175" type="line"/>
      <point x="270" y="270"/>
      <point x="220" y="428"/>
      <point x="172" y="512" type="curve"/>
      <point x="-4" y="476" type="line"/>
      <point x="74" y="356"/>
      <point x="152" y="186"/>
    </contour>
  </outline>
</glyph>
<glyph name="omicron" format="1">
  <advance width="560"/>
  <outline>
    <contour>
      <point x="280" y="-12" type="curve" smooth="yes"/>
      <point x="408" y="-12"/>
      <point x="528" y="84"/>
      <point x="528" y="250" type="curve" smooth="yes"/>
      <point x="528" y="416"/>
      <point x="408" y="512"/>
      <point x="280" y="512" type="curve" smooth="yes"/>
      <point x="152" y="512"/>
      <point x="32" y="416"/>
      <point x="32" y="250" type="curve" smooth="yes"/>
      <point x="32" y="84"/>
      <point x="152" y="-12"/>
    </contour>
    <contour>
      <point x="280" y="126" type="curve" smooth="yes"/>
      <point x="228" y="126"/>
      <point x="208" y="174"/>
      <point x="208" y="250" type="curve" smooth="yes"/>
      <point x="208" y="326"/>
      <point x="228" y="374"/>
      <point x="280" y="374" type="curve" smooth="yes"/>
      <point x="332" y="374"/>
      <point x="352" y="326"/>
      <point x="352" y="250" type="curve" smooth="yes"/>
      <point x="352" y="174"/>
      <point x="332" y="126"/>
    </contour>
    <contour>
      <point x="280" y="522" type="move" name="aboveLC"/>
    </contour>
  </outline>
</glyph>
<glyph name="one.cap" format="1">
  <advance width="540"/>
  <outline>
    <contour>
      <point x="66" y="0" type="line"/>
      <point x="488" y="0" type="line"/>
      <point x="488" y="138" type="line"/>
      <point x="374" y="138" type="line"/>
      <point x="374" y="650" type="line"/>
      <point x="248" y="650" type="line"/>
      <point x="200" y="620"/>
      <point x="154" y="602"/>
      <point x="82" y="588" type="curve"/>
      <point x="82" y="482" type="line"/>
      <point x="202" y="482" type="line"/>
      <point x="202" y="138" type="line"/>
      <point x="66" y="138" type="line"/>
    </contour>
  </outline>
</glyph>
<glyph name="one" format="1">
  <advance width="540"/>
  <outline>
    <contour>
      <point x="66" y="0" type="line"/>
      <point x="488" y="0" type="line"/>
      <point x="488" y="138" type="line"/>
      <point x="374" y="138" type="line"/>
      <point x="374" y="634" type="line"/>
      <point x="248" y="634" type="line"/>
      <point x="200" y="604"/>
      <point x="154" y="586"/>
      <point x="82" y="572" type="curve"/>
      <point x="82" y="466" type="line"/>
      <point x="202" y="466" type="line"/>
      <point x="202" y="138" type="line"/>
      <point x="66" y="138" type="line"/>
    </contour>
  </outline>
</glyph>
<glyph name="parenleft" format="1">
  <advance width="360"/>
  <outline>
    <contour>
      <point x="200" y="-180" type="curve"/>
      <point x="308" y="-136" type="line"/>
      <point x="236" y="-6"/>
      <point x="206" y="140"/>
      <point x="206" y="278" type="curve" smooth="yes"/>
      <point x="206" y="416"/>
      <point x="236" y="562"/>
      <point x="308" y="692" type="curve"/>
      <point x="200" y="736" type="line"/>
      <point x="116" y="598"/>
      <point x="68" y="454"/>
      <point x="68" y="278" type="curve" smooth="yes"/>
      <point x="68" y="102"/>
      <point x="116" y="-42"/>
    </contour>
  </outline>
</glyph>
<glyph name="period" format="1">
  <advance width="320"/>
  <outline>
    <contour>
      <point x="160" y="-12" type="curve" smooth="yes"/>
      <point x="218" y="-12"/>
      <point x="260" y="34"/>
      <point x="260" y="92" type="curve" smooth="yes"/>
      <point x="260" y="150"/>
      <point x="218" y="196"/>
      <point x="160" y="196" type="curve" smooth="yes"/>
      <point x="102" y="196"/>
      <point x="60" y="150"/>
      <point x="60" y="92" type="curve" smooth="yes"/>
      <point x="60" y="34"/>
      <point x="102" y="-12"/>
    </contour>
  </outline>
</glyph>
<glyph name="peso" format="1">
	<advance width="540"/>
	<outline>
		<contour>
			<point x="58" y="0" type="line"/>
			<point x="220" y="0" type="line"/>
			<point x="220" y="200" type="line"/>
			<point x="250" y="200" type="line" smooth="yes"/>
			<point x="371" y="200"/>
			<point x="480" y="268"/>
			<point x="480" y="414" type="curve" smooth="yes"/>
			<point x="480" y="578"/>
			<point x="375" y="634"/>
			<point x="250" y="634" type="curve" smooth="yes"/>
			<point x="58" y="634" type="line"/>
		</contour>
		<contour>
			<point x="220" y="306" type="line"/>
			<point x="220" y="528" type="line"/>
			<point x="242" y="528" type="line" smooth="yes"/>
			<point x="294" y="528"/>
			<point x="322" y="492"/>
			<point x="322" y="414" type="curve" smooth="yes"/>
			<point x="322" y="350"/>
			<point x="294" y="306"/>
			<point x="242" y="306" type="curve" smooth="yes"/>
		</contour>
		<contour>
			<point x="0" y="334" type="line"/>
			<point x="532" y="334" type="line"/>
			<point x="532" y="398" type="line"/>
			<point x="76" y="398" type="line"/>
			<point x="0" y="392" type="line"/>
		</contour>
		<contour>
			<point x="0" y="438" type="line"/>
			<point x="532" y="438" type="line"/>
			<point x="532" y="502" type="line"/>
			<point x="76" y="502" type="line"/>
			<point x="0" y="496" type="line"/>
		</contour>
	</outline>
</glyph>
<glyph name="plus" format="1">
  <advance width="540"/>
  <outline>
    <contour>
      <point x="208" y="90" type="line"/>
      <point x="332" y="90" type="line"/>
      <point x="332" y="270" type="line"/>
      <point x="506" y="270" type="line"/>
      <point x="506" y="390" type="line"/>
      <point x="332" y="390" type="line"/>
      <point x="332" y="570" type="line"/>
      <point x="208" y="570" type="line"/>
      <point x="208" y="390" type="line"/>
      <point x="34" y="390" type="line"/>
      <point x="34" y="270" type="line"/>
      <point x="208" y="270" type="line"/>
    </contour>
  </outline>
</glyph>
<glyph name="product" format="1">
  <advance width="724"/>
  <outline>
    <contour>
      <point x="76" y="-120" type="line"/>
      <point x="248" y="-120" type="line"/>
      <point x="248" y="484" type="line"/>
      <point x="476" y="484" type="line"/>
      <point x="476" y="-120" type="line"/>
      <point x="648" y="-120" type="line"/>
      <point x="648" y="634" type="line"/>
      <point x="76" y="634" type="line"/>
    </contour>
  </outline>
</glyph>
<glyph name="quotesingle" format="1">
  <advance width="320"/>
  <outline>
    <contour>
      <point x="114" y="324" type="line"/>
      <point x="206" y="324" type="line"/>
      <point x="240" y="536" type="line"/>
      <point x="246" y="684" type="line"/>
      <point x="74" y="684" type="line"/>
      <point x="80" y="536" type="line"/>
    </contour>
  </outline>
</glyph>
<glyph name="r" format="1">
	<advance width="418"/>
	<outline>
		<contour>
			<point x="58" y="0" type="line"/>
			<point x="230" y="0" type="line"/>
			<point x="230" y="278" type="line"/>
			<point x="254" y="340"/>
			<point x="298" y="362"/>
			<point x="334" y="362" type="curve" smooth="yes"/>
			<point x="356" y="362"/>
			<point x="372" y="358"/>
			<point x="390" y="354" type="curve"/>
			<point x="418" y="502" type="line"/>
			<point x="404" y="508"/>
			<point x="387" y="512"/>
			<point x="356" y="512" type="curve" smooth="yes"/>
			<point x="307" y="512"/>
			<point x="251" y="482"/>
			<point x="214" y="414" type="curve"/>
			<point x="210" y="414" type="line"/>
			<point x="198" y="500" type="line"/>
			<point x="58" y="500" type="line"/>
		</contour>
		<contour>
			<point name="aboveLC" x="258" y="522" type="move"/>
		</contour>
		<contour>
			<point name="belowLC" x="144" y="-22" type="move"/>
		</contour>
	</outline>
</glyph>
<glyph name="ringcmb" format="1">
  <advance width="0"/>
  <outline>
    <contour>
      <point x="0" y="568" type="curve" smooth="yes"/>
      <point x="94" y="568"/>
      <point x="140" y="616"/>
      <point x="140" y="674" type="curve" smooth="yes"/>
      <point x="140" y="732"/>
      <point x="94" y="780"/>
      <point x="0" y="780" type="curve" smooth="yes"/>
      <point x="-94" y="780"/>
      <point x="-140" y="732"/>
      <point x="-140" y="674" type="curve" smooth="yes"/>
      <point x="-140" y="616"/>
      <point x="-94" y="568"/>
    </contour>
    <contour>
      <point x="0" y="630" type="curve" smooth="yes"/>
      <point x="-21" y="630"/>
      <point x="-38" y="648"/>
      <point x="-38" y="674" type="curve" smooth="yes"/>
      <point x="-38" y="700"/>
      <point x="-21" y="718"/>
      <point x="0" y="718" type="curve" smooth="yes"/>
      <point x="21" y="718"/>
      <point x="38" y="700"/>
      <point x="38" y="674" type="curve" smooth="yes"/>
      <point x="38" y="648"/>
      <point x="21" y="630"/>
    </contour>
    <contour>
      <point x="0" y="522" type="move" name="_aboveLC"/>
    </contour>
  </outline>
</glyph>
<glyph name="ringhalfleftmod" format="1">
  <advance width="180"/>
  <outline>
    <contour>
      <point x="156" y="550" type="curve"/>
      <point x="156" y="612" type="line"/>
      <point x="108" y="610"/>
      <point x="92" y="630"/>
      <point x="92" y="656" type="curve" smooth="yes"/>
      <point x="92" y="682"/>
      <point x="108" y="702"/>
      <point x="156" y="700" type="curve"/>
      <point x="156" y="762" type="line"/>
      <point x="52" y="766"/>
      <point x="10" y="720"/>
      <point x="10" y="656" type="curve" smooth="yes"/>
      <point x="10" y="592"/>
      <point x="52" y="546"/>
    </contour>
  </outline>
</glyph>
<glyph name="ringhalfrightbelowcmb" format="1">
	<outline>
		<contour>
			<point x="-66" y="-262" type="line"/>
			<point x="38" y="-266"/>
			<point x="80" y="-220"/>
			<point x="80" y="-156" type="curve" smooth="yes"/>
			<point x="80" y="-92"/>
			<point x="38" y="-46"/>
			<point x="-66" y="-50" type="curve"/>
			<point x="-66" y="-112" type="line"/>
			<point x="-18" y="-110"/>
			<point x="-2" y="-130"/>
			<point x="-2" y="-156" type="curve" smooth="yes"/>
			<point x="-2" y="-182"/>
			<point x="-18" y="-202"/>
			<point x="-66" y="-200" type="curve"/>
		</contour>
		<contour>
			<point name="_belowLC" x="0" y="-22" type="move"/>
		</contour>
	</outline>
</glyph>
<glyph name="ruble" format="1">
	<advance width="540"/>
	<outline>
		<contour>
			<point x="58" y="0" type="line"/>
			<point x="220" y="0" type="line"/>
			<point x="220" y="262" type="line"/>
			<point x="246" y="262" type="line" smooth="yes"/>
			<point x="366" y="262"/>
			<point x="480" y="314"/>
			<point x="480" y="446" type="curve" smooth="yes"/>
			<point x="480" y="577"/>
			<point x="372" y="634"/>
			<point x="246" y="634" type="curve" smooth="yes"/>
			<point x="58" y="634" type="line"/>
		</contour>
		<contour>
			<point x="220" y="346" type="line"/>
			<point x="220" y="528" type="line"/>
			<point x="242" y="528" type="line" smooth="yes"/>
			<point x="290" y="528"/>
			<point x="322" y="500"/>
			<point x="322" y="436" type="curve" smooth="yes"/>
			<point x="322" y="384"/>
			<point x="290" y="346"/>
			<point x="242" y="346" type="curve" smooth="yes"/>
		</contour>
		<contour>
			<point x="0" y="134" type="line"/>
			<point x="412" y="134" type="line"/>
			<point x="412" y="218" type="line"/>
			<point x="76" y="218" type="line"/>
			<point x="0" y="212" type="line"/>
		</contour>
		<contour>
			<point x="0" y="262" type="line"/>
			<point x="132" y="262" type="line"/>
			<point x="132" y="346" type="line"/>
			<point x="76" y="346" type="line"/>
			<point x="0" y="340" type="line"/>
		</contour>
	</outline>
</glyph>
<glyph name="schwa" format="1">
	<advance width="526"/>
	<outline>
		<contour>
			<point x="254" y="-12" type="curve" smooth="yes"/>
			<point x="380" y="-12"/>
			<point x="494" y="88"/>
			<point x="494" y="250" type="curve" smooth="yes"/>
			<point x="494" y="412"/>
			<point x="390" y="512"/>
			<point x="256" y="512" type="curve" smooth="yes"/>
			<point x="196" y="512"/>
			<point x="125" y="500"/>
			<point x="68" y="462" type="curve"/>
			<point x="124" y="352" type="line"/>
			<point x="158" y="372"/>
			<point x="192" y="382"/>
			<point x="226" y="382" type="curve" smooth="yes"/>
			<point x="278" y="382"/>
			<point x="314" y="362"/>
			<point x="328" y="302" type="curve"/>
			<point x="43" y="302" type="line"/>
			<point x="40" y="290"/>
			<point x="36" y="260"/>
			<point x="36" y="230" type="curve" smooth="yes"/>
			<point x="36" y="96"/>
			<point x="106" y="-12"/>
		</contour>
		<contour>
			<point x="250" y="118" type="curve" smooth="yes"/>
			<point x="198" y="118"/>
			<point x="182" y="152"/>
			<point x="182" y="190" type="curve"/>
			<point x="330" y="190" type="line"/>
			<point x="320" y="136"/>
			<point x="288" y="118"/>
		</contour>
		<contour>
			<point name="aboveLC" x="260" y="522" type="move"/>
		</contour>
		<contour>
			<point name="belowLC" x="258" y="-22" type="move"/>
		</contour>
		<contour>
			<point name="ogonekLC" x="258" y="0" type="move"/>
		</contour>
	</outline>
</glyph>
<glyph name="schwa.sups" format="1">
  <advance width="350"/>
  <outline>
    <contour>
      <point x="166" y="360" type="curve" smooth="yes"/>
      <point x="252" y="360"/>
      <point x="328" y="428"/>
      <point x="328" y="534" type="curve" smooth="yes"/>
      <point x="328" y="638"/>
      <point x="262" y="708"/>
      <point x="164" y="708" type="curve" smooth="yes"/>
      <point x="126" y="708"/>
      <point x="78" y="696"/>
      <point x="40" y="670" type="curve"/>
      <point x="80" y="600" type="line"/>
      <point x="104" y="614"/>
      <point x="126" y="618"/>
      <point x="148" y="618" type="curve" smooth="yes"/>
      <point x="184" y="618"/>
      <point x="204" y="604"/>
      <point x="214" y="566" type="curve"/>
      <point x="26" y="566" type="line"/>
      <point x="22" y="552"/>
      <point x="20" y="542"/>
      <point x="20" y="522" type="curve" smooth="yes"/>
      <point x="20" y="432"/>
      <point x="68" y="360"/>
    </contour>
    <contour>
      <point x="165" y="450" type="curve" smooth="yes"/>
      <point x="132" y="450"/>
      <point x="120" y="472"/>
      <point x="120" y="500" type="curve"/>
      <point x="216" y="500" type="line"/>
      <point x="210" y="464"/>
      <point x="190" y="450"/>
    </contour>
  </outline>
</glyph>
<glyph name="seagullbelowcmb" format="1">
  <advance width="0"/>
  <outline>
    <contour>
      <point x="-195" y="-238" type="curve"/>
      <point x="-109" y="-250" type="line"/>
      <point x="-109.0" y="-193.0"/>
      <point x="-97.95" y="-179.0"/>
      <point x="-75" y="-179" type="curve" smooth="yes"/>
      <point x="-47.2413793103" y="-179.0"/>
      <point x="-40" y="-200.0"/>
      <point x="-40" y="-225" type="curve" smooth="yes"/>
      <point x="-40" y="-248" type="line"/>
      <point x="40" y="-248" type="line"/>
      <point x="40" y="-225" type="line" smooth="yes"/>
      <point x="40" y="-200.0"/>
      <point x="47.2857142857" y="-179.0"/>
      <point x="74" y="-179" type="curve" smooth="yes"/>
      <point x="97.0487804878" y="-179.0"/>
      <point x="109.0" y="-193.0"/>
      <point x="109" y="-250" type="curve"/>
      <point x="195" y="-238" type="line"/>
      <point x="195.0" y="-129.0"/>
      <point x="160.785123967" y="-74.0"/>
      <point x="80" y="-74" type="curve" smooth="yes"/>
      <point x="44.25" y="-74.0"/>
      <point x="15.3505767932" y="-92.1100742942"/>
      <point x="2" y="-126" type="curve"/>
      <point x="-2" y="-126" type="line"/>
      <point x="-15.3505767932" y="-92.1100742942"/>
      <point x="-43.1666666667" y="-74.0"/>
      <point x="-80" y="-74" type="curve" smooth="yes"/>
      <point x="-159.834710744" y="-74.0"/>
      <point x="-195.0" y="-129.0"/>
    </contour>
    <contour>
      <point x="0" y="-22" type="move" name="_belowLC"/>
    </contour>
  </outline>
</glyph>
<glyph name="seven" format="1">
  <advance width="540"/>
  <outline>
    <contour>
      <point x="152" y="0" type="curve"/>
      <point x="324" y="0" type="line"/>
      <point x="336" y="247"/>
      <point x="352" y="357"/>
      <point x="498" y="528" type="curve"/>
      <point x="498" y="634" type="line"/>
      <point x="44" y="634" type="line"/>
      <point x="44" y="490" type="line"/>
      <point x="316" y="490" type="line"/>
      <point x="198" y="327"/>
      <point x="164" y="200"/>
    </contour>
  </outline>
</glyph>
<glyph name="sha" format="1">
  <advance width="824"/>
  <outline>
    <contour>
      <point x="58" y="0" type="line"/>
      <point x="766" y="0" type="line"/>
      <point x="766" y="500" type="line"/>
      <point x="596" y="500" type="line"/>
      <point x="596" y="134" type="line"/>
      <point x="494" y="134" type="line"/>
      <point x="494" y="500" type="line"/>
      <point x="330" y="500" type="line"/>
      <point x="330" y="134" type="line"/>
      <point x="228" y="134" type="line"/>
      <point x="228" y="500" type="line"/>
      <point x="58" y="500" type="line"/>
    </contour>
  </outline>
</glyph>
<glyph name="squarebelowcmb" format="1">
  <advance width="0"/>
  <outline>
    <contour>
      <point x="-130" y="-250" type="line"/>
      <point x="130" y="-250" type="line"/>
      <point x="130" y="-62" type="line"/>
      <point x="-130" y="-62" type="line"/>
    </contour>
    <contour>
      <point x="-48" y="-190" type="line"/>
      <point x="-48" y="-120" type="line"/>
      <point x="48" y="-120" type="line"/>
      <point x="48" y="-190" type="line"/>
    </contour>
    <contour>
      <point x="0" y="-22" type="move" name="_belowLC"/>
    </contour>
  </outline>
</glyph>
<glyph name="squareshadow" format="1">
	<advance width="870"/>
	<outline>
		<contour>
			<point x="45" y="-60" type="line"/>
			<point x="745" y="-60" type="line"/>
			<point x="825" y="30" type="line"/>
			<point x="825" y="720" type="line"/>
			<point x="135" y="720" type="line"/>
			<point x="45" y="640" type="line"/>
		</contour>
		<contour>
			<point x="119" y="14" type="line"/>
			<point x="119" y="616" type="line"/>
			<point x="721" y="616" type="line"/>
			<point x="721" y="14" type="line"/>
		</contour>
	</outline>
</glyph>
<glyph name="tau" format="1">
  <advance width="504"/>
  <outline>
    <contour>
      <point x="320" y="-12" type="curve" smooth="yes"/>
      <point x="368" y="-12"/>
      <point x="410" y="-4"/>
      <point x="446" y="6" type="curve"/>
      <point x="424" y="134" type="line"/>
      <point x="400" y="128"/>
      <point x="384" y="126"/>
      <point x="366" y="126" type="curve" smooth="yes"/>
      <point x="344" y="126"/>
      <point x="328" y="136"/>
      <point x="328" y="170" type="curve" smooth="yes"/>
      <point x="328" y="214"/>
      <point x="330" y="290"/>
      <point x="334" y="366" type="curve"/>
      <point x="478" y="366" type="line"/>
      <point x="478" y="500" type="line"/>
      <point x="102" y="500" type="line"/>
      <point x="26" y="494" type="line"/>
      <point x="26" y="366" type="line"/>
      <point x="166" y="366" type="line"/>
      <point x="166" y="176" type="line" smooth="yes"/>
      <point x="166" y="64"/>
      <point x="204" y="-12"/>
    </contour>
  </outline>
</glyph>
<glyph name="tbar" format="1">
  <advance width="400"/>
  <outline>
    <contour>
      <point x="14" y="220" type="line"/>
      <point x="366" y="220" type="line"/>
      <point x="366" y="300" type="line"/>
      <point x="90" y="300" type="line"/>
      <point x="14" y="294" type="line"/>
    </contour>
    <component base="t"/>
  </outline>
</glyph>
<glyph name="theta.alt" format="1">
	<advance width="560"/>
	<outline>
		<contour>
			<point x="280" y="-12" type="curve" smooth="yes"/>
			<point x="444" y="-12"/>
			<point x="516" y="116"/>
			<point x="516" y="352" type="curve" smooth="yes"/>
			<point x="516" y="577"/>
			<point x="420" y="708"/>
			<point x="252" y="708" type="curve" smooth="yes"/>
			<point x="132" y="708"/>
			<point x="44" y="617"/>
			<point x="44" y="510" type="curve" smooth="yes"/>
			<point x="44" y="429"/>
			<point x="98" y="274"/>
			<point x="374" y="314" type="curve"/>
			<point x="420" y="424" type="line"/>
			<point x="232" y="384"/>
			<point x="200" y="443"/>
			<point x="200" y="502" type="curve" smooth="yes"/>
			<point x="200" y="534"/>
			<point x="220" y="569"/>
			<point x="260" y="570" type="curve" smooth="yes"/>
			<point x="309" y="572"/>
			<point x="350" y="528"/>
			<point x="350" y="352" type="curve" smooth="yes"/>
			<point x="350" y="157"/>
			<point x="328" y="126"/>
			<point x="286" y="126" type="curve" smooth="yes"/>
			<point x="247" y="126"/>
			<point x="232" y="144"/>
			<point x="232" y="202" type="curve" smooth="yes"/>
			<point x="232" y="224"/>
			<point x="230" y="268"/>
			<point x="222" y="280" type="curve"/>
			<point x="60" y="280" type="line"/>
			<point x="70" y="250"/>
			<point x="70" y="219"/>
			<point x="70" y="177" type="curve"/>
			<point x="70" y="72"/>
			<point x="124" y="-12"/>
		</contour>
	</outline>
</glyph>
<glyph name="three.cap" format="1">
  <advance width="540"/>
  <outline>
    <contour>
      <point x="246" y="-12" type="curve" smooth="yes"/>
      <point x="378.0" y="-12.0"/>
      <point x="492.0" y="56.28125"/>
      <point x="492" y="178" type="curve" smooth="yes"/>
      <point x="492" y="260"/>
      <point x="442" y="312"/>
      <point x="370" y="334" type="curve"/>
      <point x="370" y="338" type="line"/>
      <point x="439" y="368"/>
      <point x="472" y="417"/>
      <point x="472" y="479" type="curve" smooth="yes"/>
      <point x="472" y="597"/>
      <point x="382" y="662"/>
      <point x="242" y="662" type="curve" smooth="yes"/>
      <point x="164" y="662"/>
      <point x="98" y="632"/>
      <point x="36" y="580" type="curve"/>
      <point x="122" y="476" type="line"/>
      <point x="162" y="510"/>
      <point x="192" y="528"/>
      <point x="234" y="528" type="curve" smooth="yes"/>
      <point x="277" y="528"/>
      <point x="300" y="507"/>
      <point x="300" y="466" type="curve" smooth="yes"/>
      <point x="300" y="419"/>
      <point x="268" y="390"/>
      <point x="162" y="390" type="curve"/>
      <point x="162" y="270" type="line"/>
      <point x="295" y="270"/>
      <point x="320" y="241"/>
      <point x="320" y="190" type="curve" smooth="yes"/>
      <point x="320.0" y="147.333333333"/>
      <point x="284.0" y="126.0"/>
      <point x="228" y="126" type="curve" smooth="yes"/>
      <point x="183.0" y="126.0"/>
      <point x="137.0" y="150.0"/>
      <point x="98" y="186" type="curve"/>
      <point x="20" y="78" type="line"/>
      <point x="68" y="22"/>
      <point x="143" y="-12"/>
    </contour>
  </outline>
</glyph>
<glyph name="tildecmb" format="1">
  <advance width="0"/>
  <outline>
    <contour>
      <point x="64" y="572" type="curve" smooth="yes"/>
      <point x="144" y="572"/>
      <point x="194" y="617"/>
      <point x="196" y="730" type="curve"/>
      <point x="90" y="736" type="line"/>
      <point x="86" y="700"/>
      <point x="76" y="690"/>
      <point x="60" y="690" type="curve" smooth="yes"/>
      <point x="34" y="690"/>
      <point x="-4" y="746"/>
      <point x="-64" y="746" type="curve" smooth="yes"/>
      <point x="-144" y="746"/>
      <point x="-194" y="701"/>
      <point x="-196" y="588" type="curve"/>
      <point x="-90" y="582" type="line"/>
      <point x="-86" y="618"/>
      <point x="-76" y="628"/>
      <point x="-60" y="628" type="curve" smooth="yes"/>
      <point x="-34" y="628"/>
      <point x="4" y="572"/>
    </contour>
    <contour>
      <point x="0" y="522" type="move" name="_aboveLC"/>
    </contour>
  </outline>
</glyph>
<glyph name="tildeoverlaycmb" format="1">
	<outline>
		<component base="tildecmb" yOffset="-398"/>
		<contour>
			<point name="_center" x="0" y="250" type="move"/>
		</contour>
	</outline>
</glyph>
<glyph name="triangleblackright" format="1">
  <advance width="870"/>
  <outline>
    <contour>
      <point x="45" y="-60" type="line"/>
      <point x="47" y="-60" type="line"/>
      <point x="845" y="328" type="line"/>
      <point x="845" y="332" type="line"/>
      <point x="47" y="720" type="line"/>
      <point x="45" y="720" type="line"/>
    </contour>
  </outline>
</glyph>
<glyph name="trianglewhiteright" format="1">
  <advance width="870"/>
  <outline>
    <contour>
      <point x="45" y="-60" type="line"/>
      <point x="47" y="-60" type="line"/>
      <point x="845" y="328" type="line"/>
      <point x="845" y="332" type="line"/>
      <point x="47" y="720" type="line"/>
      <point x="45" y="720" type="line"/>
    </contour>
    <contour>
      <point x="155" y="125" type="line"/>
      <point x="155" y="535" type="line"/>
      <point x="605" y="330" type="line"/>
    </contour>
  </outline>
</glyph>
<glyph name="tse" format="1">
  <advance width="610"/>
  <outline>
    <contour>
      <point x="58" y="0" type="line"/>
      <point x="520" y="0" type="line"/>
      <point x="520" y="500" type="line"/>
      <point x="348" y="500" type="line"/>
      <point x="348" y="134" type="line"/>
      <point x="230" y="134" type="line"/>
      <point x="230" y="500" type="line"/>
      <point x="58" y="500" type="line"/>
    </contour>
    <contour>
      <point x="438" y="-172" type="line"/>
      <point x="586" y="-172" type="line"/>
      <point x="602" y="20" type="line"/>
      <point x="602" y="134" type="line"/>
      <point x="410" y="134" type="line"/>
      <point x="410" y="0" type="line"/>
      <point x="438" y="0" type="line"/>
    </contour>
    <contour>
      <point x="296" y="522" type="move" name="aboveLC"/>
    </contour>
  </outline>
</glyph>
<glyph name="tugrik" format="1">
	<advance width="540"/>
	<outline>
		<contour>
			<point x="184" y="0" type="line"/>
			<point x="356" y="0" type="line"/>
			<point x="356" y="510" type="line"/>
			<point x="508" y="510" type="line"/>
			<point x="508" y="634" type="line"/>
			<point x="32" y="634" type="line"/>
			<point x="32" y="510" type="line"/>
			<point x="184" y="510" type="line"/>
		</contour>
		<contour>
			<point x="80" y="48" type="line"/>
			<point x="184" y="104" type="line"/>
			<point x="356" y="188" type="line"/>
			<point x="460" y="244" type="line"/>
			<point x="460" y="336" type="line"/>
			<point x="356" y="280" type="line"/>
			<point x="356" y="328" type="line"/>
			<point x="460" y="384" type="line"/>
			<point x="460" y="476" type="line"/>
			<point x="356" y="420" type="line"/>
			<point x="184" y="336" type="line"/>
			<point x="80" y="280" type="line"/>
			<point x="80" y="188" type="line"/>
			<point x="184" y="244" type="line"/>
			<point x="184" y="196" type="line"/>
			<point x="80" y="140" type="line"/>
		</contour>
	</outline>
</glyph>
<glyph name="two.cap" format="1">
  <advance width="540"/>
  <outline>
    <contour>
      <point x="36" y="0" type="line"/>
      <point x="496" y="0" type="line"/>
      <point x="496" y="144" type="line"/>
      <point x="390" y="144" type="line" smooth="yes"/>
      <point x="362" y="144"/>
      <point x="316" y="140"/>
      <point x="284" y="136" type="curve"/>
      <point x="372.359867545" y="226.414748185"/>
      <point x="466.0" y="346.59602649"/>
      <point x="466" y="454" type="curve" smooth="yes"/>
      <point x="466" y="580"/>
      <point x="376" y="662"/>
      <point x="248" y="662" type="curve" smooth="yes"/>
      <point x="154" y="662"/>
      <point x="94" y="630"/>
      <point x="28" y="560" type="curve"/>
      <point x="120" y="468" type="line"/>
      <point x="150" y="498"/>
      <point x="182" y="528"/>
      <point x="224" y="528" type="curve" smooth="yes"/>
      <point x="270" y="528"/>
      <point x="302" y="501"/>
      <point x="302" y="444" type="curve" smooth="yes"/>
      <point x="302.0" y="353.83030303"/>
      <point x="189.376672928" y="239.106539094"/>
      <point x="36" y="98" type="curve"/>
    </contour>
  </outline>
</glyph>
<glyph name="two.onum" format="1">
	<advance width="526"/>
	<outline>
		<contour>
			<point x="44" y="0" type="line"/>
			<point x="476" y="0" type="line"/>
			<point x="476" y="144" type="line"/>
			<point x="404" y="144" type="line" smooth="yes"/>
			<point x="376" y="144"/>
			<point x="330" y="140"/>
			<point x="298" y="136" type="curve"/>
			<point x="394" y="226"/>
			<point x="452" y="300"/>
			<point x="452" y="390" type="curve" smooth="yes"/>
			<point x="452" y="510"/>
			<point x="366" y="592"/>
			<point x="242" y="592" type="curve" smooth="yes"/>
			<point x="148" y="592"/>
			<point x="94" y="560"/>
			<point x="28" y="490" type="curve"/>
			<point x="120" y="398" type="line"/>
			<point x="150" y="428"/>
			<point x="176" y="458"/>
			<point x="220" y="458" type="curve" smooth="yes"/>
			<point x="262" y="458"/>
			<point x="288" y="431"/>
			<point x="288" y="382" type="curve" smooth="yes"/>
			<point x="288" y="304"/>
			<point x="194" y="212"/>
			<point x="44" y="98" type="curve"/>
		</contour>
	</outline>
</glyph>
<glyph name="two.pnum" format="1">
	<advance width="536"/>
	<outline>
		<contour>
			<point x="46" y="0" type="line"/>
			<point x="486" y="0" type="line"/>
			<point x="486" y="144" type="line"/>
			<point x="400" y="144" type="line" smooth="yes"/>
			<point x="372" y="144"/>
			<point x="326" y="140"/>
			<point x="294" y="136" type="curve"/>
			<point x="375" y="224"/>
			<point x="466" y="336"/>
			<point x="466" y="438" type="curve" smooth="yes"/>
			<point x="466" y="564"/>
			<point x="382" y="646"/>
			<point x="254" y="646" type="curve" smooth="yes"/>
			<point x="160" y="646"/>
			<point x="98" y="614"/>
			<point x="32" y="544" type="curve"/>
			<point x="124" y="452" type="line"/>
			<point x="154" y="482"/>
			<point x="188" y="512"/>
			<point x="230" y="512" type="curve" smooth="yes"/>
			<point x="276" y="512"/>
			<point x="302" y="485"/>
			<point x="302" y="428" type="curve" smooth="yes"/>
			<point x="302" y="342"/>
			<point x="192" y="236"/>
			<point x="46" y="98" type="curve"/>
		</contour>
	</outline>
</glyph>
<glyph name="twoemdash" format="1">
  <advance width="1500"/>
  <outline>
    <contour>
      <point x="44" y="200" type="line"/>
      <point x="1456" y="200" type="line"/>
      <point x="1456" y="308" type="line"/>
      <point x="44" y="308" type="line"/>
    </contour>
  </outline>
</glyph>
<glyph name="ubar" format="1">
  <advance width="634"/>
  <outline>
    <contour>
      <point x="14" y="270" type="line"/>
      <point x="616" y="270" type="line"/>
      <point x="616" y="350" type="line"/>
      <point x="90" y="350" type="line"/>
      <point x="14" y="344" type="line"/>
    </contour>
    <component base="u" xOffset="30"/>
    <contour>
      <point x="320" y="522" type="move" name="aboveLC"/>
    </contour>
  </outline>
</glyph>
<glyph name="uptackbelowcmb" format="1">
	<outline>
		<contour>
			<point x="112" y="-236" type="line"/>
			<point x="112" y="-156" type="line"/>
			<point x="44" y="-156" type="line"/>
			<point x="44" y="-52" type="line"/>
			<point x="-44" y="-52" type="line"/>
			<point x="-44" y="-156" type="line"/>
			<point x="-112" y="-156" type="line"/>
			<point x="-112" y="-236" type="line"/>
		</contour>
		<contour>
			<point name="_belowLC" x="0" y="-22" type="move"/>
		</contour>
	</outline>
</glyph>
<glyph name="v.sups" format="1">
  <advance width="368"/>
  <outline>
    <contour>
      <point x="116" y="368" type="line"/>
      <point x="254" y="368" type="line"/>
      <point x="360" y="700" type="line"/>
      <point x="246" y="700" type="line"/>
      <point x="212" y="558" type="line"/>
      <point x="188" y="454" type="line"/>
      <point x="186" y="454" type="line"/>
      <point x="160" y="558" type="line"/>
      <point x="126" y="700" type="line"/>
      <point x="8" y="700" type="line"/>
    </contour>
  </outline>
</glyph>
<glyph name="verticallinemod" format="1">
  <advance width="160"/>
  <outline>
    <contour>
      <point x="18" y="542" type="line"/>
      <point x="142" y="542" type="line"/>
      <point x="148" y="750" type="line"/>
      <point x="12" y="750" type="line"/>
    </contour>
  </outline>
</glyph>
<glyph name="vturned" format="1">
  <advance width="544"/>
  <outline>
    <contour>
      <point x="12" y="0" type="line"/>
      <point x="176" y="0" type="line"/>
      <point x="230" y="218" type="line" smooth="yes"/>
      <point x="242" y="268"/>
      <point x="254" y="320"/>
      <point x="266" y="374" type="curve"/>
      <point x="270" y="374" type="line"/>
      <point x="282" y="320"/>
      <point x="294" y="268"/>
      <point x="306" y="218" type="curve" smooth="yes"/>
      <point x="360" y="0" type="line"/>
      <point x="532" y="0" type="line"/>
      <point x="368" y="500" type="line"/>
      <point x="170" y="500" type="line"/>
    </contour>
    <contour>
      <point x="274" y="522" type="move" name="aboveLC"/>
    </contour>
    <contour>
      <point x="274" y="-22" type="move" name="belowLC"/>
    </contour>
  </outline>
</glyph>
<glyph name="w.sups" format="1">
  <advance width="537"/>
  <outline>
    <contour>
      <point x="96" y="368" type="line"/>
      <point x="232" y="368" type="line"/>
      <point x="254" y="480" type="line"/>
      <point x="268" y="570" type="line"/>
      <point x="270" y="570" type="line"/>
      <point x="284" y="480" type="line"/>
      <point x="308" y="368" type="line"/>
      <point x="446" y="368" type="line"/>
      <point x="521" y="700" type="line"/>
      <point x="412" y="700" type="line"/>
      <point x="388" y="564" type="line"/>
      <point x="375" y="462" type="line"/>
      <point x="372" y="462" type="line"/>
      <point x="354" y="564" type="line"/>
      <point x="318" y="700" type="line"/>
      <point x="224" y="700" type="line"/>
      <point x="190" y="564" type="line"/>
      <point x="173" y="462" type="line"/>
      <point x="170" y="462" type="line"/>
      <point x="158" y="564" type="line"/>
      <point x="134" y="700" type="line"/>
      <point x="16" y="700" type="line"/>
    </contour>
  </outline>
</glyph>
<glyph name="z.sups" format="1">
  <advance width="320"/>
  <outline>
    <contour>
      <point x="26" y="368" type="line"/>
      <point x="304" y="368" type="line"/>
      <point x="304" y="460" type="line"/>
      <point x="175" y="460" type="line"/>
      <point x="300" y="636" type="line"/>
      <point x="300" y="700" type="line"/>
      <point x="42" y="700" type="line"/>
      <point x="42" y="608" type="line"/>
      <point x="152" y="608" type="line"/>
      <point x="26" y="432" type="line"/>
    </contour>
  </outline>
</glyph>
<glyph name="zero.pnum" format="1">
	<advance width="596"/>
	<outline>
		<contour>
			<point x="298" y="-12" type="curve" smooth="yes"/>
			<point x="444" y="-12"/>
			<point x="544" y="112"/>
			<point x="544" y="320" type="curve" smooth="yes"/>
			<point x="544" y="527"/>
			<point x="444" y="646"/>
			<point x="298" y="646" type="curve" smooth="yes"/>
			<point x="152" y="646"/>
			<point x="52" y="528"/>
			<point x="52" y="320" type="curve" smooth="yes"/>
			<point x="52" y="112"/>
			<point x="152" y="-12"/>
		</contour>
		<contour>
			<point x="298" y="126" type="curve" smooth="yes"/>
			<point x="254" y="126"/>
			<point x="224" y="160"/>
			<point x="224" y="320" type="curve" smooth="yes"/>
			<point x="224" y="480"/>
			<point x="254" y="508"/>
			<point x="298" y="508" type="curve" smooth="yes"/>
			<point x="342" y="508"/>
			<point x="372" y="480"/>
			<point x="372" y="320" type="curve" smooth="yes"/>
			<point x="372" y="160"/>
			<point x="342" y="126"/>
		</contour>
	</outline>
</glyph>
<glyph name="zero.cap" format="1">
  <advance width="540"/>
  <outline>
    <contour>
      <point x="270" y="-12" type="curve" smooth="yes"/>
      <point x="410.0" y="-12.0"/>
      <point x="506.0" y="105.771084337"/>
      <point x="506" y="328" type="curve" smooth="yes"/>
      <point x="506.0" y="549.69005848"/>
      <point x="410.0" y="662.0"/>
      <point x="270" y="662" type="curve" smooth="yes"/>
      <point x="130.0" y="662.0"/>
      <point x="34.0" y="550.666666667"/>
      <point x="34" y="328" type="curve" smooth="yes"/>
      <point x="34.0" y="105.771084337"/>
      <point x="130.0" y="-12.0"/>
    </contour>
    <contour>
      <point x="270" y="120" type="curve" smooth="yes"/>
      <point x="230.0" y="120.0"/>
      <point x="196.0" y="153.28"/>
      <point x="196" y="328" type="curve" smooth="yes"/>
      <point x="196.0" y="503.066666667"/>
      <point x="230.0" y="530.0"/>
      <point x="270" y="530" type="curve" smooth="yes"/>
      <point x="310.0" y="530.0"/>
      <point x="344.0" y="503.066666667"/>
      <point x="344" y="328" type="curve" smooth="yes"/>
      <point x="344.0" y="153.28"/>
      <point x="310.0" y="120.0"/>
    </contour>
  </outline>
</glyph>
<glyph name="zhedescender.b" format="1">
	<advance width="836"/>
	<outline>
		<contour>
			<point x="666" y="-172" type="line"/>
			<point x="812" y="-172" type="line"/>
			<point x="828" y="20" type="line"/>
			<point x="828" y="134" type="line"/>
			<point x="636" y="134" type="line"/>
			<point x="636" y="0" type="line"/>
			<point x="666" y="0" type="line"/>
		</contour>
		<component base="zhe.b"/>
	</outline>
</glyph>
<glyph name="zhedescender" format="1">
  <advance width="836"/>
  <outline>
    <contour>
      <point x="666" y="-172" type="line"/>
      <point x="812" y="-172" type="line"/>
      <point x="828" y="20" type="line"/>
      <point x="828" y="134" type="line"/>
      <point x="636" y="134" type="line"/>
      <point x="636" y="0" type="line"/>
      <point x="666" y="0" type="line"/>
    </contour>
    <component base="zhe"/>
  </outline>
</glyph>
<glyph name="zretroflex" format="1">
	<advance width="474"/>
	<outline>
		<contour>
			<point x="452" y="-188" type="curve" smooth="yes"/>
			<point x="493" y="-188"/>
			<point x="516" y="-182"/>
			<point x="536" y="-174" type="curve"/>
			<point x="506" y="-48" type="line"/>
			<point x="496" y="-52"/>
			<point x="489" y="-54"/>
			<point x="480" y="-54" type="curve" smooth="yes"/>
			<point x="451" y="-54"/>
			<point x="440" y="-37"/>
			<point x="440" y="10" type="curve"/>
			<point x="440" y="134" type="line"/>
			<point x="254" y="134" type="line"/>
			<point x="444" y="408" type="line"/>
			<point x="444" y="500" type="line"/>
			<point x="62" y="500" type="line"/>
			<point x="62" y="366" type="line"/>
			<point x="230" y="366" type="line"/>
			<point x="40" y="92" type="line"/>
			<point x="40" y="0" type="line"/>
			<point x="268" y="0" type="line"/>
			<point x="268" y="-4" type="line" smooth="yes"/>
			<point x="268" y="-90"/>
			<point x="314" y="-188"/>
		</contour>
		<contour>
			<point name="aboveLC" x="252" y="522" type="move"/>
		</contour>
	</outline>
</glyph>
